G04 #@! TF.GenerationSoftware,KiCad,Pcbnew,(5.0.2)-1*
G04 #@! TF.CreationDate,2018-12-31T21:56:22+00:00*
G04 #@! TF.ProjectId,D75F_Board,44373546-5f42-46f6-9172-642e6b696361,rev?*
G04 #@! TF.SameCoordinates,Original*
G04 #@! TF.FileFunction,Legend,Top*
G04 #@! TF.FilePolarity,Positive*
%FSLAX46Y46*%
G04 Gerber Fmt 4.6, Leading zero omitted, Abs format (unit mm)*
G04 Created by KiCad (PCBNEW (5.0.2)-1) date 31/12/2018 21:56:22*
%MOMM*%
%LPD*%
G01*
G04 APERTURE LIST*
%ADD10C,0.100000*%
%ADD11C,0.300000*%
%ADD12C,0.120000*%
%ADD13C,0.150000*%
G04 APERTURE END LIST*
D10*
X164460666Y-89188666D02*
X163760666Y-89188666D01*
X164460666Y-88555333D02*
X163760666Y-88555333D01*
X164427333Y-88555333D02*
X164460666Y-88622000D01*
X164460666Y-88755333D01*
X164427333Y-88822000D01*
X164394000Y-88855333D01*
X164327333Y-88888666D01*
X164127333Y-88888666D01*
X164060666Y-88855333D01*
X164027333Y-88822000D01*
X163994000Y-88755333D01*
X163994000Y-88622000D01*
X164027333Y-88555333D01*
X164427333Y-87955333D02*
X164460666Y-88022000D01*
X164460666Y-88155333D01*
X164427333Y-88222000D01*
X164360666Y-88255333D01*
X164094000Y-88255333D01*
X164027333Y-88222000D01*
X163994000Y-88155333D01*
X163994000Y-88022000D01*
X164027333Y-87955333D01*
X164094000Y-87922000D01*
X164160666Y-87922000D01*
X164227333Y-88255333D01*
X164460666Y-87322000D02*
X164094000Y-87322000D01*
X164027333Y-87355333D01*
X163994000Y-87422000D01*
X163994000Y-87555333D01*
X164027333Y-87622000D01*
X164427333Y-87322000D02*
X164460666Y-87388666D01*
X164460666Y-87555333D01*
X164427333Y-87622000D01*
X164360666Y-87655333D01*
X164294000Y-87655333D01*
X164227333Y-87622000D01*
X164194000Y-87555333D01*
X164194000Y-87388666D01*
X164160666Y-87322000D01*
X164427333Y-87022000D02*
X164460666Y-86955333D01*
X164460666Y-86822000D01*
X164427333Y-86755333D01*
X164360666Y-86722000D01*
X164327333Y-86722000D01*
X164260666Y-86755333D01*
X164227333Y-86822000D01*
X164227333Y-86922000D01*
X164194000Y-86988666D01*
X164127333Y-87022000D01*
X164094000Y-87022000D01*
X164027333Y-86988666D01*
X163994000Y-86922000D01*
X163994000Y-86822000D01*
X164027333Y-86755333D01*
X164460666Y-85888666D02*
X163760666Y-85888666D01*
X164027333Y-85888666D02*
X163994000Y-85822000D01*
X163994000Y-85688666D01*
X164027333Y-85622000D01*
X164060666Y-85588666D01*
X164127333Y-85555333D01*
X164327333Y-85555333D01*
X164394000Y-85588666D01*
X164427333Y-85622000D01*
X164460666Y-85688666D01*
X164460666Y-85822000D01*
X164427333Y-85888666D01*
X163994000Y-85322000D02*
X164460666Y-85155333D01*
X163994000Y-84988666D02*
X164460666Y-85155333D01*
X164627333Y-85222000D01*
X164660666Y-85255333D01*
X164694000Y-85322000D01*
X165610666Y-94205333D02*
X164910666Y-94205333D01*
X164910666Y-93938666D01*
X164944000Y-93872000D01*
X164977333Y-93838666D01*
X165044000Y-93805333D01*
X165144000Y-93805333D01*
X165210666Y-93838666D01*
X165244000Y-93872000D01*
X165277333Y-93938666D01*
X165277333Y-94205333D01*
X165410666Y-93538666D02*
X165410666Y-93205333D01*
X165610666Y-93605333D02*
X164910666Y-93372000D01*
X165610666Y-93138666D01*
X164910666Y-92972000D02*
X164910666Y-92538666D01*
X165177333Y-92772000D01*
X165177333Y-92672000D01*
X165210666Y-92605333D01*
X165244000Y-92572000D01*
X165310666Y-92538666D01*
X165477333Y-92538666D01*
X165544000Y-92572000D01*
X165577333Y-92605333D01*
X165610666Y-92672000D01*
X165610666Y-92872000D01*
X165577333Y-92938666D01*
X165544000Y-92972000D01*
X165244000Y-92005333D02*
X165244000Y-92238666D01*
X165610666Y-92238666D02*
X164910666Y-92238666D01*
X164910666Y-91905333D01*
X165277333Y-91505333D02*
X165610666Y-91505333D01*
X164910666Y-91738666D02*
X165277333Y-91505333D01*
X164910666Y-91272000D01*
X165610666Y-91038666D02*
X164910666Y-91038666D01*
X165410666Y-90805333D01*
X164910666Y-90572000D01*
X165610666Y-90572000D01*
X165577333Y-90205333D02*
X165610666Y-90205333D01*
X165677333Y-90238666D01*
X165710666Y-90272000D01*
X165610666Y-89372000D02*
X164910666Y-89372000D01*
X164910666Y-89105333D01*
X164944000Y-89038666D01*
X164977333Y-89005333D01*
X165044000Y-88972000D01*
X165144000Y-88972000D01*
X165210666Y-89005333D01*
X165244000Y-89038666D01*
X165277333Y-89105333D01*
X165277333Y-89372000D01*
X165244000Y-88672000D02*
X165244000Y-88438666D01*
X165610666Y-88338666D02*
X165610666Y-88672000D01*
X164910666Y-88672000D01*
X164910666Y-88338666D01*
X165610666Y-87672000D02*
X165610666Y-88072000D01*
X165610666Y-87872000D02*
X164910666Y-87872000D01*
X165010666Y-87938666D01*
X165077333Y-88005333D01*
X165110666Y-88072000D01*
X165544000Y-86972000D02*
X165577333Y-87005333D01*
X165610666Y-87105333D01*
X165610666Y-87172000D01*
X165577333Y-87272000D01*
X165510666Y-87338666D01*
X165444000Y-87372000D01*
X165310666Y-87405333D01*
X165210666Y-87405333D01*
X165077333Y-87372000D01*
X165010666Y-87338666D01*
X164944000Y-87272000D01*
X164910666Y-87172000D01*
X164910666Y-87105333D01*
X164944000Y-87005333D01*
X164977333Y-86972000D01*
X165610666Y-86672000D02*
X164910666Y-86672000D01*
X165410666Y-86438666D01*
X164910666Y-86205333D01*
X165610666Y-86205333D01*
X164910666Y-85738666D02*
X164910666Y-85605333D01*
X164944000Y-85538666D01*
X165010666Y-85472000D01*
X165144000Y-85438666D01*
X165377333Y-85438666D01*
X165510666Y-85472000D01*
X165577333Y-85538666D01*
X165610666Y-85605333D01*
X165610666Y-85738666D01*
X165577333Y-85805333D01*
X165510666Y-85872000D01*
X165377333Y-85905333D01*
X165144000Y-85905333D01*
X165010666Y-85872000D01*
X164944000Y-85805333D01*
X164910666Y-85738666D01*
X165610666Y-84038666D02*
X165610666Y-84072000D01*
X165577333Y-84138666D01*
X165477333Y-84238666D01*
X165277333Y-84405333D01*
X165177333Y-84472000D01*
X165077333Y-84505333D01*
X165010666Y-84505333D01*
X164944000Y-84472000D01*
X164910666Y-84405333D01*
X164910666Y-84372000D01*
X164944000Y-84305333D01*
X165010666Y-84272000D01*
X165044000Y-84272000D01*
X165110666Y-84305333D01*
X165144000Y-84338666D01*
X165277333Y-84538666D01*
X165310666Y-84572000D01*
X165377333Y-84605333D01*
X165477333Y-84605333D01*
X165544000Y-84572000D01*
X165577333Y-84538666D01*
X165610666Y-84472000D01*
X165610666Y-84372000D01*
X165577333Y-84305333D01*
X165544000Y-84272000D01*
X165410666Y-84172000D01*
X165310666Y-84138666D01*
X165244000Y-84138666D01*
X164944000Y-82838666D02*
X164910666Y-82905333D01*
X164910666Y-83005333D01*
X164944000Y-83105333D01*
X165010666Y-83172000D01*
X165077333Y-83205333D01*
X165210666Y-83238666D01*
X165310666Y-83238666D01*
X165444000Y-83205333D01*
X165510666Y-83172000D01*
X165577333Y-83105333D01*
X165610666Y-83005333D01*
X165610666Y-82938666D01*
X165577333Y-82838666D01*
X165544000Y-82805333D01*
X165310666Y-82805333D01*
X165310666Y-82938666D01*
X164910666Y-82372000D02*
X164910666Y-82305333D01*
X164944000Y-82238666D01*
X164977333Y-82205333D01*
X165044000Y-82172000D01*
X165177333Y-82138666D01*
X165344000Y-82138666D01*
X165477333Y-82172000D01*
X165544000Y-82205333D01*
X165577333Y-82238666D01*
X165610666Y-82305333D01*
X165610666Y-82372000D01*
X165577333Y-82438666D01*
X165544000Y-82472000D01*
X165477333Y-82505333D01*
X165344000Y-82538666D01*
X165177333Y-82538666D01*
X165044000Y-82505333D01*
X164977333Y-82472000D01*
X164944000Y-82438666D01*
X164910666Y-82372000D01*
X165610666Y-81838666D02*
X164910666Y-81838666D01*
X165410666Y-81605333D01*
X164910666Y-81372000D01*
X165610666Y-81372000D01*
X164910666Y-80838666D02*
X165410666Y-80838666D01*
X165510666Y-80872000D01*
X165577333Y-80938666D01*
X165610666Y-81038666D01*
X165610666Y-81105333D01*
X164910666Y-80572000D02*
X165610666Y-80405333D01*
X165110666Y-80272000D01*
X165610666Y-80138666D01*
X164910666Y-79972000D01*
X116142333Y-94238666D02*
X116109000Y-94205333D01*
X116075666Y-94138666D01*
X116075666Y-93972000D01*
X116109000Y-93905333D01*
X116142333Y-93872000D01*
X116209000Y-93838666D01*
X116275666Y-93838666D01*
X116375666Y-93872000D01*
X116775666Y-94272000D01*
X116775666Y-93838666D01*
X116075666Y-93205333D02*
X116075666Y-93538666D01*
X116409000Y-93572000D01*
X116375666Y-93538666D01*
X116342333Y-93472000D01*
X116342333Y-93305333D01*
X116375666Y-93238666D01*
X116409000Y-93205333D01*
X116475666Y-93172000D01*
X116642333Y-93172000D01*
X116709000Y-93205333D01*
X116742333Y-93238666D01*
X116775666Y-93305333D01*
X116775666Y-93472000D01*
X116742333Y-93538666D01*
X116709000Y-93572000D01*
X116775666Y-92338666D02*
X116075666Y-92338666D01*
X116575666Y-92105333D01*
X116075666Y-91872000D01*
X116775666Y-91872000D01*
X116775666Y-91538666D02*
X116075666Y-91538666D01*
X116409000Y-91538666D02*
X116409000Y-91138666D01*
X116775666Y-91138666D02*
X116075666Y-91138666D01*
X116309000Y-90872000D02*
X116309000Y-90505333D01*
X116775666Y-90872000D01*
X116775666Y-90505333D01*
X116075666Y-89805333D02*
X116075666Y-89405333D01*
X116775666Y-89605333D02*
X116075666Y-89605333D01*
X116709000Y-88772000D02*
X116742333Y-88805333D01*
X116775666Y-88905333D01*
X116775666Y-88972000D01*
X116742333Y-89072000D01*
X116675666Y-89138666D01*
X116609000Y-89172000D01*
X116475666Y-89205333D01*
X116375666Y-89205333D01*
X116242333Y-89172000D01*
X116175666Y-89138666D01*
X116109000Y-89072000D01*
X116075666Y-88972000D01*
X116075666Y-88905333D01*
X116109000Y-88805333D01*
X116142333Y-88772000D01*
X116075666Y-88538666D02*
X116775666Y-88072000D01*
X116075666Y-88072000D02*
X116775666Y-88538666D01*
X116075666Y-87672000D02*
X116075666Y-87538666D01*
X116109000Y-87472000D01*
X116175666Y-87405333D01*
X116309000Y-87372000D01*
X116542333Y-87372000D01*
X116675666Y-87405333D01*
X116742333Y-87472000D01*
X116775666Y-87538666D01*
X116775666Y-87672000D01*
X116742333Y-87738666D01*
X116675666Y-87805333D01*
X116542333Y-87838666D01*
X116309000Y-87838666D01*
X116175666Y-87805333D01*
X116109000Y-87738666D01*
X116075666Y-87672000D01*
X116042333Y-86572000D02*
X116942333Y-87172000D01*
X116409000Y-86105333D02*
X116409000Y-86338666D01*
X116775666Y-86338666D02*
X116075666Y-86338666D01*
X116075666Y-86005333D01*
X116775666Y-85738666D02*
X116309000Y-85738666D01*
X116075666Y-85738666D02*
X116109000Y-85772000D01*
X116142333Y-85738666D01*
X116109000Y-85705333D01*
X116075666Y-85738666D01*
X116142333Y-85738666D01*
X116775666Y-85305333D02*
X116742333Y-85372000D01*
X116675666Y-85405333D01*
X116075666Y-85405333D01*
X116309000Y-85138666D02*
X116309000Y-84872000D01*
X116075666Y-85038666D02*
X116675666Y-85038666D01*
X116742333Y-85005333D01*
X116775666Y-84938666D01*
X116775666Y-84872000D01*
X116742333Y-84372000D02*
X116775666Y-84438666D01*
X116775666Y-84572000D01*
X116742333Y-84638666D01*
X116675666Y-84672000D01*
X116409000Y-84672000D01*
X116342333Y-84638666D01*
X116309000Y-84572000D01*
X116309000Y-84438666D01*
X116342333Y-84372000D01*
X116409000Y-84338666D01*
X116475666Y-84338666D01*
X116542333Y-84672000D01*
X116775666Y-84038666D02*
X116309000Y-84038666D01*
X116442333Y-84038666D02*
X116375666Y-84005333D01*
X116342333Y-83972000D01*
X116309000Y-83905333D01*
X116309000Y-83838666D01*
X116042333Y-83105333D02*
X116942333Y-83705333D01*
X116409000Y-82638666D02*
X116442333Y-82538666D01*
X116475666Y-82505333D01*
X116542333Y-82472000D01*
X116642333Y-82472000D01*
X116709000Y-82505333D01*
X116742333Y-82538666D01*
X116775666Y-82605333D01*
X116775666Y-82872000D01*
X116075666Y-82872000D01*
X116075666Y-82638666D01*
X116109000Y-82572000D01*
X116142333Y-82538666D01*
X116209000Y-82505333D01*
X116275666Y-82505333D01*
X116342333Y-82538666D01*
X116375666Y-82572000D01*
X116409000Y-82638666D01*
X116409000Y-82872000D01*
X116309000Y-81872000D02*
X116775666Y-81872000D01*
X116309000Y-82172000D02*
X116675666Y-82172000D01*
X116742333Y-82138666D01*
X116775666Y-82072000D01*
X116775666Y-81972000D01*
X116742333Y-81905333D01*
X116709000Y-81872000D01*
X116309000Y-81638666D02*
X116309000Y-81372000D01*
X116775666Y-81538666D02*
X116175666Y-81538666D01*
X116109000Y-81505333D01*
X116075666Y-81438666D01*
X116075666Y-81372000D01*
X116309000Y-81238666D02*
X116309000Y-80972000D01*
X116775666Y-81138666D02*
X116175666Y-81138666D01*
X116109000Y-81105333D01*
X116075666Y-81038666D01*
X116075666Y-80972000D01*
X116742333Y-80472000D02*
X116775666Y-80538666D01*
X116775666Y-80672000D01*
X116742333Y-80738666D01*
X116675666Y-80772000D01*
X116409000Y-80772000D01*
X116342333Y-80738666D01*
X116309000Y-80672000D01*
X116309000Y-80538666D01*
X116342333Y-80472000D01*
X116409000Y-80438666D01*
X116475666Y-80438666D01*
X116542333Y-80772000D01*
X116775666Y-80138666D02*
X116309000Y-80138666D01*
X116442333Y-80138666D02*
X116375666Y-80105333D01*
X116342333Y-80072000D01*
X116309000Y-80005333D01*
X116309000Y-79938666D01*
D11*
X153416000Y-92229714D02*
X153487428Y-92301142D01*
X153416000Y-92372571D01*
X153344571Y-92301142D01*
X153416000Y-92229714D01*
X153416000Y-92372571D01*
D12*
G04 #@! TO.C,C10*
X143898252Y-81736000D02*
X143375748Y-81736000D01*
X143898252Y-80316000D02*
X143375748Y-80316000D01*
G04 #@! TO.C,C11*
X127348064Y-98261000D02*
X126143936Y-98261000D01*
X127348064Y-95541000D02*
X126143936Y-95541000D01*
G04 #@! TO.C,R7*
X133088748Y-96318000D02*
X133611252Y-96318000D01*
X133088748Y-97738000D02*
X133611252Y-97738000D01*
G04 #@! TO.C,R6*
X138295748Y-97738000D02*
X138818252Y-97738000D01*
X138295748Y-96318000D02*
X138818252Y-96318000D01*
G04 #@! TO.C,Q2*
X145852000Y-96522000D02*
X144922000Y-96522000D01*
X142692000Y-96522000D02*
X143622000Y-96522000D01*
X142692000Y-96522000D02*
X142692000Y-98682000D01*
X145852000Y-96522000D02*
X145852000Y-97982000D01*
G04 #@! TO.C,C1*
X124370000Y-78072064D02*
X124370000Y-76867936D01*
X127090000Y-78072064D02*
X127090000Y-76867936D01*
G04 #@! TO.C,C2*
X155313748Y-83895000D02*
X155836252Y-83895000D01*
X155313748Y-82475000D02*
X155836252Y-82475000D01*
G04 #@! TO.C,C4*
X143756748Y-93547000D02*
X144279252Y-93547000D01*
X143756748Y-92127000D02*
X144279252Y-92127000D01*
G04 #@! TO.C,C5*
X143756748Y-89587000D02*
X144279252Y-89587000D01*
X143756748Y-91007000D02*
X144279252Y-91007000D01*
G04 #@! TO.C,C6*
X144279252Y-87959000D02*
X143756748Y-87959000D01*
X144279252Y-86539000D02*
X143756748Y-86539000D01*
G04 #@! TO.C,C7*
X147581252Y-84380000D02*
X147058748Y-84380000D01*
X147581252Y-85800000D02*
X147058748Y-85800000D01*
G04 #@! TO.C,C8*
X162635000Y-82923748D02*
X162635000Y-83446252D01*
X161215000Y-82923748D02*
X161215000Y-83446252D01*
G04 #@! TO.C,C9*
X151391252Y-80189000D02*
X150868748Y-80189000D01*
X151391252Y-81609000D02*
X150868748Y-81609000D01*
G04 #@! TO.C,J1*
X123934000Y-80916000D02*
X117914000Y-80916000D01*
X117914000Y-80916000D02*
X117914000Y-86216000D01*
X117914000Y-86216000D02*
X123934000Y-86216000D01*
X123934000Y-86216000D02*
X123934000Y-80916000D01*
X122904000Y-80626000D02*
X118904000Y-80626000D01*
X117914000Y-82296000D02*
X118914000Y-82296000D01*
X118914000Y-82296000D02*
X118914000Y-84836000D01*
X118914000Y-84836000D02*
X117914000Y-84836000D01*
X118914000Y-82296000D02*
X119444000Y-82546000D01*
X119444000Y-82546000D02*
X119444000Y-84586000D01*
X119444000Y-84586000D02*
X118914000Y-84836000D01*
X117914000Y-82546000D02*
X118914000Y-82546000D01*
X117914000Y-84586000D02*
X118914000Y-84586000D01*
X123934000Y-81496000D02*
X123334000Y-81496000D01*
X123334000Y-81496000D02*
X123334000Y-83096000D01*
X123334000Y-83096000D02*
X123934000Y-83096000D01*
X123934000Y-84036000D02*
X123334000Y-84036000D01*
X123334000Y-84036000D02*
X123334000Y-85636000D01*
X123334000Y-85636000D02*
X123934000Y-85636000D01*
G04 #@! TO.C,J2*
X129360000Y-77036000D02*
X129360000Y-79936000D01*
X136070000Y-77036000D02*
X136070000Y-79936000D01*
X131265000Y-81841000D02*
X134165000Y-81841000D01*
X131265000Y-75131000D02*
X134165000Y-75131000D01*
G04 #@! TO.C,L1*
X157596252Y-79180000D02*
X154823748Y-79180000D01*
X157596252Y-75760000D02*
X154823748Y-75760000D01*
G04 #@! TO.C,L2*
X149976252Y-75760000D02*
X147203748Y-75760000D01*
X149976252Y-79180000D02*
X147203748Y-79180000D01*
G04 #@! TO.C,L3*
X142356252Y-79180000D02*
X139583748Y-79180000D01*
X142356252Y-75760000D02*
X139583748Y-75760000D01*
G04 #@! TO.C,Q1*
X154210000Y-85860000D02*
X154210000Y-85200000D01*
X154210000Y-87520000D02*
X154210000Y-86860000D01*
X154210000Y-87520000D02*
X156240000Y-87520000D01*
X155620000Y-85200000D02*
X154210000Y-85200000D01*
G04 #@! TO.C,R1*
X157936000Y-96908252D02*
X157936000Y-96385748D01*
X156516000Y-96908252D02*
X156516000Y-96385748D01*
G04 #@! TO.C,R2*
X151586000Y-85844748D02*
X151586000Y-86367252D01*
X150166000Y-85844748D02*
X150166000Y-86367252D01*
G04 #@! TO.C,R3*
X154678748Y-89610000D02*
X155201252Y-89610000D01*
X154678748Y-88190000D02*
X155201252Y-88190000D01*
G04 #@! TO.C,R4*
X162635000Y-86733748D02*
X162635000Y-87256252D01*
X161215000Y-86733748D02*
X161215000Y-87256252D01*
G04 #@! TO.C,R5*
X159460000Y-81018748D02*
X159460000Y-81541252D01*
X158040000Y-81018748D02*
X158040000Y-81541252D01*
G04 #@! TO.C,U1*
X124033000Y-93620000D02*
X125533000Y-93620000D01*
X125533000Y-93620000D02*
X125533000Y-93350000D01*
X125533000Y-93350000D02*
X128363000Y-93350000D01*
X124033000Y-86720000D02*
X125533000Y-86720000D01*
X125533000Y-86720000D02*
X125533000Y-86990000D01*
X125533000Y-86990000D02*
X126633000Y-86990000D01*
G04 #@! TO.C,Y1*
X139115000Y-94727000D02*
X132865000Y-94727000D01*
X139115000Y-89677000D02*
X132865000Y-89677000D01*
X139115000Y-89677000D02*
G75*
G02X139115000Y-94727000I0J-2525000D01*
G01*
X132865000Y-89677000D02*
G75*
G03X132865000Y-94727000I0J-2525000D01*
G01*
G04 #@! TO.C,Y2*
X139042000Y-89012000D02*
G75*
G03X139042000Y-83962000I0J2525000D01*
G01*
X132792000Y-89012000D02*
G75*
G02X132792000Y-83962000I0J2525000D01*
G01*
X132792000Y-89012000D02*
X139042000Y-89012000D01*
X132792000Y-83962000D02*
X139042000Y-83962000D01*
G04 #@! TO.C,C3*
X158528936Y-90461000D02*
X159733064Y-90461000D01*
X158528936Y-93181000D02*
X159733064Y-93181000D01*
G04 #@! TO.C,C10*
D13*
X139565142Y-81891142D02*
X139517523Y-81938761D01*
X139374666Y-81986380D01*
X139279428Y-81986380D01*
X139136571Y-81938761D01*
X139041333Y-81843523D01*
X138993714Y-81748285D01*
X138946095Y-81557809D01*
X138946095Y-81414952D01*
X138993714Y-81224476D01*
X139041333Y-81129238D01*
X139136571Y-81034000D01*
X139279428Y-80986380D01*
X139374666Y-80986380D01*
X139517523Y-81034000D01*
X139565142Y-81081619D01*
X140517523Y-81986380D02*
X139946095Y-81986380D01*
X140231809Y-81986380D02*
X140231809Y-80986380D01*
X140136571Y-81129238D01*
X140041333Y-81224476D01*
X139946095Y-81272095D01*
X141136571Y-80986380D02*
X141231809Y-80986380D01*
X141327047Y-81034000D01*
X141374666Y-81081619D01*
X141422285Y-81176857D01*
X141469904Y-81367333D01*
X141469904Y-81605428D01*
X141422285Y-81795904D01*
X141374666Y-81891142D01*
X141327047Y-81938761D01*
X141231809Y-81986380D01*
X141136571Y-81986380D01*
X141041333Y-81938761D01*
X140993714Y-81891142D01*
X140946095Y-81795904D01*
X140898476Y-81605428D01*
X140898476Y-81367333D01*
X140946095Y-81176857D01*
X140993714Y-81081619D01*
X141041333Y-81034000D01*
X141136571Y-80986380D01*
G04 #@! TO.C,C11*
X122420142Y-99036142D02*
X122372523Y-99083761D01*
X122229666Y-99131380D01*
X122134428Y-99131380D01*
X121991571Y-99083761D01*
X121896333Y-98988523D01*
X121848714Y-98893285D01*
X121801095Y-98702809D01*
X121801095Y-98559952D01*
X121848714Y-98369476D01*
X121896333Y-98274238D01*
X121991571Y-98179000D01*
X122134428Y-98131380D01*
X122229666Y-98131380D01*
X122372523Y-98179000D01*
X122420142Y-98226619D01*
X123372523Y-99131380D02*
X122801095Y-99131380D01*
X123086809Y-99131380D02*
X123086809Y-98131380D01*
X122991571Y-98274238D01*
X122896333Y-98369476D01*
X122801095Y-98417095D01*
X124324904Y-99131380D02*
X123753476Y-99131380D01*
X124039190Y-99131380D02*
X124039190Y-98131380D01*
X123943952Y-98274238D01*
X123848714Y-98369476D01*
X123753476Y-98417095D01*
G04 #@! TO.C,R7*
X133056333Y-99258380D02*
X132723000Y-98782190D01*
X132484904Y-99258380D02*
X132484904Y-98258380D01*
X132865857Y-98258380D01*
X132961095Y-98306000D01*
X133008714Y-98353619D01*
X133056333Y-98448857D01*
X133056333Y-98591714D01*
X133008714Y-98686952D01*
X132961095Y-98734571D01*
X132865857Y-98782190D01*
X132484904Y-98782190D01*
X133389666Y-98258380D02*
X134056333Y-98258380D01*
X133627761Y-99258380D01*
G04 #@! TO.C,R6*
X138390333Y-99258380D02*
X138057000Y-98782190D01*
X137818904Y-99258380D02*
X137818904Y-98258380D01*
X138199857Y-98258380D01*
X138295095Y-98306000D01*
X138342714Y-98353619D01*
X138390333Y-98448857D01*
X138390333Y-98591714D01*
X138342714Y-98686952D01*
X138295095Y-98734571D01*
X138199857Y-98782190D01*
X137818904Y-98782190D01*
X139247476Y-98258380D02*
X139057000Y-98258380D01*
X138961761Y-98306000D01*
X138914142Y-98353619D01*
X138818904Y-98496476D01*
X138771285Y-98686952D01*
X138771285Y-99067904D01*
X138818904Y-99163142D01*
X138866523Y-99210761D01*
X138961761Y-99258380D01*
X139152238Y-99258380D01*
X139247476Y-99210761D01*
X139295095Y-99163142D01*
X139342714Y-99067904D01*
X139342714Y-98829809D01*
X139295095Y-98734571D01*
X139247476Y-98686952D01*
X139152238Y-98639333D01*
X138961761Y-98639333D01*
X138866523Y-98686952D01*
X138818904Y-98734571D01*
X138771285Y-98829809D01*
G04 #@! TO.C,Q2*
X141509761Y-97829619D02*
X141414523Y-97782000D01*
X141319285Y-97686761D01*
X141176428Y-97543904D01*
X141081190Y-97496285D01*
X140985952Y-97496285D01*
X141033571Y-97734380D02*
X140938333Y-97686761D01*
X140843095Y-97591523D01*
X140795476Y-97401047D01*
X140795476Y-97067714D01*
X140843095Y-96877238D01*
X140938333Y-96782000D01*
X141033571Y-96734380D01*
X141224047Y-96734380D01*
X141319285Y-96782000D01*
X141414523Y-96877238D01*
X141462142Y-97067714D01*
X141462142Y-97401047D01*
X141414523Y-97591523D01*
X141319285Y-97686761D01*
X141224047Y-97734380D01*
X141033571Y-97734380D01*
X141843095Y-96829619D02*
X141890714Y-96782000D01*
X141985952Y-96734380D01*
X142224047Y-96734380D01*
X142319285Y-96782000D01*
X142366904Y-96829619D01*
X142414523Y-96924857D01*
X142414523Y-97020095D01*
X142366904Y-97162952D01*
X141795476Y-97734380D01*
X142414523Y-97734380D01*
G04 #@! TO.C,C1*
X122896333Y-76176142D02*
X122848714Y-76223761D01*
X122705857Y-76271380D01*
X122610619Y-76271380D01*
X122467761Y-76223761D01*
X122372523Y-76128523D01*
X122324904Y-76033285D01*
X122277285Y-75842809D01*
X122277285Y-75699952D01*
X122324904Y-75509476D01*
X122372523Y-75414238D01*
X122467761Y-75319000D01*
X122610619Y-75271380D01*
X122705857Y-75271380D01*
X122848714Y-75319000D01*
X122896333Y-75366619D01*
X123848714Y-76271380D02*
X123277285Y-76271380D01*
X123563000Y-76271380D02*
X123563000Y-75271380D01*
X123467761Y-75414238D01*
X123372523Y-75509476D01*
X123277285Y-75557095D01*
G04 #@! TO.C,C2*
X155281333Y-82018142D02*
X155233714Y-82065761D01*
X155090857Y-82113380D01*
X154995619Y-82113380D01*
X154852761Y-82065761D01*
X154757523Y-81970523D01*
X154709904Y-81875285D01*
X154662285Y-81684809D01*
X154662285Y-81541952D01*
X154709904Y-81351476D01*
X154757523Y-81256238D01*
X154852761Y-81161000D01*
X154995619Y-81113380D01*
X155090857Y-81113380D01*
X155233714Y-81161000D01*
X155281333Y-81208619D01*
X155662285Y-81208619D02*
X155709904Y-81161000D01*
X155805142Y-81113380D01*
X156043238Y-81113380D01*
X156138476Y-81161000D01*
X156186095Y-81208619D01*
X156233714Y-81303857D01*
X156233714Y-81399095D01*
X156186095Y-81541952D01*
X155614666Y-82113380D01*
X156233714Y-82113380D01*
G04 #@! TO.C,C4*
X144105333Y-94972142D02*
X144057714Y-95019761D01*
X143914857Y-95067380D01*
X143819619Y-95067380D01*
X143676761Y-95019761D01*
X143581523Y-94924523D01*
X143533904Y-94829285D01*
X143486285Y-94638809D01*
X143486285Y-94495952D01*
X143533904Y-94305476D01*
X143581523Y-94210238D01*
X143676761Y-94115000D01*
X143819619Y-94067380D01*
X143914857Y-94067380D01*
X144057714Y-94115000D01*
X144105333Y-94162619D01*
X144962476Y-94400714D02*
X144962476Y-95067380D01*
X144724380Y-94019761D02*
X144486285Y-94734047D01*
X145105333Y-94734047D01*
G04 #@! TO.C,C5*
X146645333Y-90781142D02*
X146597714Y-90828761D01*
X146454857Y-90876380D01*
X146359619Y-90876380D01*
X146216761Y-90828761D01*
X146121523Y-90733523D01*
X146073904Y-90638285D01*
X146026285Y-90447809D01*
X146026285Y-90304952D01*
X146073904Y-90114476D01*
X146121523Y-90019238D01*
X146216761Y-89924000D01*
X146359619Y-89876380D01*
X146454857Y-89876380D01*
X146597714Y-89924000D01*
X146645333Y-89971619D01*
X147550095Y-89876380D02*
X147073904Y-89876380D01*
X147026285Y-90352571D01*
X147073904Y-90304952D01*
X147169142Y-90257333D01*
X147407238Y-90257333D01*
X147502476Y-90304952D01*
X147550095Y-90352571D01*
X147597714Y-90447809D01*
X147597714Y-90685904D01*
X147550095Y-90781142D01*
X147502476Y-90828761D01*
X147407238Y-90876380D01*
X147169142Y-90876380D01*
X147073904Y-90828761D01*
X147026285Y-90781142D01*
G04 #@! TO.C,C6*
X143724333Y-85955142D02*
X143676714Y-86002761D01*
X143533857Y-86050380D01*
X143438619Y-86050380D01*
X143295761Y-86002761D01*
X143200523Y-85907523D01*
X143152904Y-85812285D01*
X143105285Y-85621809D01*
X143105285Y-85478952D01*
X143152904Y-85288476D01*
X143200523Y-85193238D01*
X143295761Y-85098000D01*
X143438619Y-85050380D01*
X143533857Y-85050380D01*
X143676714Y-85098000D01*
X143724333Y-85145619D01*
X144581476Y-85050380D02*
X144391000Y-85050380D01*
X144295761Y-85098000D01*
X144248142Y-85145619D01*
X144152904Y-85288476D01*
X144105285Y-85478952D01*
X144105285Y-85859904D01*
X144152904Y-85955142D01*
X144200523Y-86002761D01*
X144295761Y-86050380D01*
X144486238Y-86050380D01*
X144581476Y-86002761D01*
X144629095Y-85955142D01*
X144676714Y-85859904D01*
X144676714Y-85621809D01*
X144629095Y-85526571D01*
X144581476Y-85478952D01*
X144486238Y-85431333D01*
X144295761Y-85431333D01*
X144200523Y-85478952D01*
X144152904Y-85526571D01*
X144105285Y-85621809D01*
G04 #@! TO.C,C7*
X147280333Y-83796142D02*
X147232714Y-83843761D01*
X147089857Y-83891380D01*
X146994619Y-83891380D01*
X146851761Y-83843761D01*
X146756523Y-83748523D01*
X146708904Y-83653285D01*
X146661285Y-83462809D01*
X146661285Y-83319952D01*
X146708904Y-83129476D01*
X146756523Y-83034238D01*
X146851761Y-82939000D01*
X146994619Y-82891380D01*
X147089857Y-82891380D01*
X147232714Y-82939000D01*
X147280333Y-82986619D01*
X147613666Y-82891380D02*
X148280333Y-82891380D01*
X147851761Y-83891380D01*
G04 #@! TO.C,C8*
X159853333Y-84177142D02*
X159805714Y-84224761D01*
X159662857Y-84272380D01*
X159567619Y-84272380D01*
X159424761Y-84224761D01*
X159329523Y-84129523D01*
X159281904Y-84034285D01*
X159234285Y-83843809D01*
X159234285Y-83700952D01*
X159281904Y-83510476D01*
X159329523Y-83415238D01*
X159424761Y-83320000D01*
X159567619Y-83272380D01*
X159662857Y-83272380D01*
X159805714Y-83320000D01*
X159853333Y-83367619D01*
X160424761Y-83700952D02*
X160329523Y-83653333D01*
X160281904Y-83605714D01*
X160234285Y-83510476D01*
X160234285Y-83462857D01*
X160281904Y-83367619D01*
X160329523Y-83320000D01*
X160424761Y-83272380D01*
X160615238Y-83272380D01*
X160710476Y-83320000D01*
X160758095Y-83367619D01*
X160805714Y-83462857D01*
X160805714Y-83510476D01*
X160758095Y-83605714D01*
X160710476Y-83653333D01*
X160615238Y-83700952D01*
X160424761Y-83700952D01*
X160329523Y-83748571D01*
X160281904Y-83796190D01*
X160234285Y-83891428D01*
X160234285Y-84081904D01*
X160281904Y-84177142D01*
X160329523Y-84224761D01*
X160424761Y-84272380D01*
X160615238Y-84272380D01*
X160710476Y-84224761D01*
X160758095Y-84177142D01*
X160805714Y-84081904D01*
X160805714Y-83891428D01*
X160758095Y-83796190D01*
X160710476Y-83748571D01*
X160615238Y-83700952D01*
G04 #@! TO.C,C9*
X148042333Y-81637142D02*
X147994714Y-81684761D01*
X147851857Y-81732380D01*
X147756619Y-81732380D01*
X147613761Y-81684761D01*
X147518523Y-81589523D01*
X147470904Y-81494285D01*
X147423285Y-81303809D01*
X147423285Y-81160952D01*
X147470904Y-80970476D01*
X147518523Y-80875238D01*
X147613761Y-80780000D01*
X147756619Y-80732380D01*
X147851857Y-80732380D01*
X147994714Y-80780000D01*
X148042333Y-80827619D01*
X148518523Y-81732380D02*
X148709000Y-81732380D01*
X148804238Y-81684761D01*
X148851857Y-81637142D01*
X148947095Y-81494285D01*
X148994714Y-81303809D01*
X148994714Y-80922857D01*
X148947095Y-80827619D01*
X148899476Y-80780000D01*
X148804238Y-80732380D01*
X148613761Y-80732380D01*
X148518523Y-80780000D01*
X148470904Y-80827619D01*
X148423285Y-80922857D01*
X148423285Y-81160952D01*
X148470904Y-81256190D01*
X148518523Y-81303809D01*
X148613761Y-81351428D01*
X148804238Y-81351428D01*
X148899476Y-81303809D01*
X148947095Y-81256190D01*
X148994714Y-81160952D01*
G04 #@! TO.C,J1*
X124888666Y-82764380D02*
X124888666Y-83478666D01*
X124841047Y-83621523D01*
X124745809Y-83716761D01*
X124602952Y-83764380D01*
X124507714Y-83764380D01*
X125888666Y-83764380D02*
X125317238Y-83764380D01*
X125602952Y-83764380D02*
X125602952Y-82764380D01*
X125507714Y-82907238D01*
X125412476Y-83002476D01*
X125317238Y-83050095D01*
G04 #@! TO.C,J2*
X127428666Y-80224380D02*
X127428666Y-80938666D01*
X127381047Y-81081523D01*
X127285809Y-81176761D01*
X127142952Y-81224380D01*
X127047714Y-81224380D01*
X127857238Y-80319619D02*
X127904857Y-80272000D01*
X128000095Y-80224380D01*
X128238190Y-80224380D01*
X128333428Y-80272000D01*
X128381047Y-80319619D01*
X128428666Y-80414857D01*
X128428666Y-80510095D01*
X128381047Y-80652952D01*
X127809619Y-81224380D01*
X128428666Y-81224380D01*
G04 #@! TO.C,L1*
X153884333Y-80716380D02*
X153408142Y-80716380D01*
X153408142Y-79716380D01*
X154741476Y-80716380D02*
X154170047Y-80716380D01*
X154455761Y-80716380D02*
X154455761Y-79716380D01*
X154360523Y-79859238D01*
X154265285Y-79954476D01*
X154170047Y-80002095D01*
G04 #@! TO.C,L2*
X146391333Y-80589380D02*
X145915142Y-80589380D01*
X145915142Y-79589380D01*
X146677047Y-79684619D02*
X146724666Y-79637000D01*
X146819904Y-79589380D01*
X147058000Y-79589380D01*
X147153238Y-79637000D01*
X147200857Y-79684619D01*
X147248476Y-79779857D01*
X147248476Y-79875095D01*
X147200857Y-80017952D01*
X146629428Y-80589380D01*
X147248476Y-80589380D01*
G04 #@! TO.C,L3*
X138644333Y-80589380D02*
X138168142Y-80589380D01*
X138168142Y-79589380D01*
X138882428Y-79589380D02*
X139501476Y-79589380D01*
X139168142Y-79970333D01*
X139311000Y-79970333D01*
X139406238Y-80017952D01*
X139453857Y-80065571D01*
X139501476Y-80160809D01*
X139501476Y-80398904D01*
X139453857Y-80494142D01*
X139406238Y-80541761D01*
X139311000Y-80589380D01*
X139025285Y-80589380D01*
X138930047Y-80541761D01*
X138882428Y-80494142D01*
G04 #@! TO.C,Q1*
X152812761Y-85256619D02*
X152717523Y-85209000D01*
X152622285Y-85113761D01*
X152479428Y-84970904D01*
X152384190Y-84923285D01*
X152288952Y-84923285D01*
X152336571Y-85161380D02*
X152241333Y-85113761D01*
X152146095Y-85018523D01*
X152098476Y-84828047D01*
X152098476Y-84494714D01*
X152146095Y-84304238D01*
X152241333Y-84209000D01*
X152336571Y-84161380D01*
X152527047Y-84161380D01*
X152622285Y-84209000D01*
X152717523Y-84304238D01*
X152765142Y-84494714D01*
X152765142Y-84828047D01*
X152717523Y-85018523D01*
X152622285Y-85113761D01*
X152527047Y-85161380D01*
X152336571Y-85161380D01*
X153717523Y-85161380D02*
X153146095Y-85161380D01*
X153431809Y-85161380D02*
X153431809Y-84161380D01*
X153336571Y-84304238D01*
X153241333Y-84399476D01*
X153146095Y-84447095D01*
G04 #@! TO.C,R1*
X158964333Y-95956380D02*
X158631000Y-95480190D01*
X158392904Y-95956380D02*
X158392904Y-94956380D01*
X158773857Y-94956380D01*
X158869095Y-95004000D01*
X158916714Y-95051619D01*
X158964333Y-95146857D01*
X158964333Y-95289714D01*
X158916714Y-95384952D01*
X158869095Y-95432571D01*
X158773857Y-95480190D01*
X158392904Y-95480190D01*
X159916714Y-95956380D02*
X159345285Y-95956380D01*
X159631000Y-95956380D02*
X159631000Y-94956380D01*
X159535761Y-95099238D01*
X159440523Y-95194476D01*
X159345285Y-95242095D01*
G04 #@! TO.C,R2*
X148423333Y-87701380D02*
X148090000Y-87225190D01*
X147851904Y-87701380D02*
X147851904Y-86701380D01*
X148232857Y-86701380D01*
X148328095Y-86749000D01*
X148375714Y-86796619D01*
X148423333Y-86891857D01*
X148423333Y-87034714D01*
X148375714Y-87129952D01*
X148328095Y-87177571D01*
X148232857Y-87225190D01*
X147851904Y-87225190D01*
X148804285Y-86796619D02*
X148851904Y-86749000D01*
X148947142Y-86701380D01*
X149185238Y-86701380D01*
X149280476Y-86749000D01*
X149328095Y-86796619D01*
X149375714Y-86891857D01*
X149375714Y-86987095D01*
X149328095Y-87129952D01*
X148756666Y-87701380D01*
X149375714Y-87701380D01*
G04 #@! TO.C,R3*
X157694333Y-89352380D02*
X157361000Y-88876190D01*
X157122904Y-89352380D02*
X157122904Y-88352380D01*
X157503857Y-88352380D01*
X157599095Y-88400000D01*
X157646714Y-88447619D01*
X157694333Y-88542857D01*
X157694333Y-88685714D01*
X157646714Y-88780952D01*
X157599095Y-88828571D01*
X157503857Y-88876190D01*
X157122904Y-88876190D01*
X158027666Y-88352380D02*
X158646714Y-88352380D01*
X158313380Y-88733333D01*
X158456238Y-88733333D01*
X158551476Y-88780952D01*
X158599095Y-88828571D01*
X158646714Y-88923809D01*
X158646714Y-89161904D01*
X158599095Y-89257142D01*
X158551476Y-89304761D01*
X158456238Y-89352380D01*
X158170523Y-89352380D01*
X158075285Y-89304761D01*
X158027666Y-89257142D01*
G04 #@! TO.C,R4*
X159853333Y-87701380D02*
X159520000Y-87225190D01*
X159281904Y-87701380D02*
X159281904Y-86701380D01*
X159662857Y-86701380D01*
X159758095Y-86749000D01*
X159805714Y-86796619D01*
X159853333Y-86891857D01*
X159853333Y-87034714D01*
X159805714Y-87129952D01*
X159758095Y-87177571D01*
X159662857Y-87225190D01*
X159281904Y-87225190D01*
X160710476Y-87034714D02*
X160710476Y-87701380D01*
X160472380Y-86653761D02*
X160234285Y-87368047D01*
X160853333Y-87368047D01*
G04 #@! TO.C,R5*
X160488333Y-80970380D02*
X160155000Y-80494190D01*
X159916904Y-80970380D02*
X159916904Y-79970380D01*
X160297857Y-79970380D01*
X160393095Y-80018000D01*
X160440714Y-80065619D01*
X160488333Y-80160857D01*
X160488333Y-80303714D01*
X160440714Y-80398952D01*
X160393095Y-80446571D01*
X160297857Y-80494190D01*
X159916904Y-80494190D01*
X161393095Y-79970380D02*
X160916904Y-79970380D01*
X160869285Y-80446571D01*
X160916904Y-80398952D01*
X161012142Y-80351333D01*
X161250238Y-80351333D01*
X161345476Y-80398952D01*
X161393095Y-80446571D01*
X161440714Y-80541809D01*
X161440714Y-80779904D01*
X161393095Y-80875142D01*
X161345476Y-80922761D01*
X161250238Y-80970380D01*
X161012142Y-80970380D01*
X160916904Y-80922761D01*
X160869285Y-80875142D01*
G04 #@! TO.C,U1*
X121793095Y-94067380D02*
X121793095Y-94876904D01*
X121840714Y-94972142D01*
X121888333Y-95019761D01*
X121983571Y-95067380D01*
X122174047Y-95067380D01*
X122269285Y-95019761D01*
X122316904Y-94972142D01*
X122364523Y-94876904D01*
X122364523Y-94067380D01*
X123364523Y-95067380D02*
X122793095Y-95067380D01*
X123078809Y-95067380D02*
X123078809Y-94067380D01*
X122983571Y-94210238D01*
X122888333Y-94305476D01*
X122793095Y-94353095D01*
G04 #@! TO.C,U2*
X150368095Y-89876380D02*
X150368095Y-90685904D01*
X150415714Y-90781142D01*
X150463333Y-90828761D01*
X150558571Y-90876380D01*
X150749047Y-90876380D01*
X150844285Y-90828761D01*
X150891904Y-90781142D01*
X150939523Y-90685904D01*
X150939523Y-89876380D01*
X151368095Y-89971619D02*
X151415714Y-89924000D01*
X151510952Y-89876380D01*
X151749047Y-89876380D01*
X151844285Y-89924000D01*
X151891904Y-89971619D01*
X151939523Y-90066857D01*
X151939523Y-90162095D01*
X151891904Y-90304952D01*
X151320476Y-90876380D01*
X151939523Y-90876380D01*
G04 #@! TO.C,Y1*
X128809809Y-92051190D02*
X128809809Y-92527380D01*
X128476476Y-91527380D02*
X128809809Y-92051190D01*
X129143142Y-91527380D01*
X130000285Y-92527380D02*
X129428857Y-92527380D01*
X129714571Y-92527380D02*
X129714571Y-91527380D01*
X129619333Y-91670238D01*
X129524095Y-91765476D01*
X129428857Y-91813095D01*
G04 #@! TO.C,Y2*
X128809809Y-86463190D02*
X128809809Y-86939380D01*
X128476476Y-85939380D02*
X128809809Y-86463190D01*
X129143142Y-85939380D01*
X129428857Y-86034619D02*
X129476476Y-85987000D01*
X129571714Y-85939380D01*
X129809809Y-85939380D01*
X129905047Y-85987000D01*
X129952666Y-86034619D01*
X130000285Y-86129857D01*
X130000285Y-86225095D01*
X129952666Y-86367952D01*
X129381238Y-86939380D01*
X130000285Y-86939380D01*
G04 #@! TO.C,C3*
X162393333Y-92051142D02*
X162345714Y-92098761D01*
X162202857Y-92146380D01*
X162107619Y-92146380D01*
X161964761Y-92098761D01*
X161869523Y-92003523D01*
X161821904Y-91908285D01*
X161774285Y-91717809D01*
X161774285Y-91574952D01*
X161821904Y-91384476D01*
X161869523Y-91289238D01*
X161964761Y-91194000D01*
X162107619Y-91146380D01*
X162202857Y-91146380D01*
X162345714Y-91194000D01*
X162393333Y-91241619D01*
X162726666Y-91146380D02*
X163345714Y-91146380D01*
X163012380Y-91527333D01*
X163155238Y-91527333D01*
X163250476Y-91574952D01*
X163298095Y-91622571D01*
X163345714Y-91717809D01*
X163345714Y-91955904D01*
X163298095Y-92051142D01*
X163250476Y-92098761D01*
X163155238Y-92146380D01*
X162869523Y-92146380D01*
X162774285Y-92098761D01*
X162726666Y-92051142D01*
G04 #@! TD*
M02*
