G04 #@! TF.GenerationSoftware,KiCad,Pcbnew,(5.0.2)-1*
G04 #@! TF.CreationDate,2018-12-31T21:56:22+00:00*
G04 #@! TF.ProjectId,D75F_Board,44373546-5f42-46f6-9172-642e6b696361,rev?*
G04 #@! TF.SameCoordinates,Original*
G04 #@! TF.FileFunction,Copper,L1,Top*
G04 #@! TF.FilePolarity,Positive*
%FSLAX46Y46*%
G04 Gerber Fmt 4.6, Leading zero omitted, Abs format (unit mm)*
G04 Created by KiCad (PCBNEW (5.0.2)-1) date 31/12/2018 21:56:22*
%MOMM*%
%LPD*%
G01*
G04 APERTURE LIST*
G04 #@! TA.AperFunction,Conductor*
%ADD10C,0.100000*%
G04 #@! TD*
G04 #@! TA.AperFunction,SMDPad,CuDef*
%ADD11C,1.150000*%
G04 #@! TD*
G04 #@! TA.AperFunction,SMDPad,CuDef*
%ADD12C,1.425000*%
G04 #@! TD*
G04 #@! TA.AperFunction,SMDPad,CuDef*
%ADD13R,0.800000X0.900000*%
G04 #@! TD*
G04 #@! TA.AperFunction,ComponentPad*
%ADD14C,1.740000*%
G04 #@! TD*
G04 #@! TA.AperFunction,ComponentPad*
%ADD15O,2.200000X1.740000*%
G04 #@! TD*
G04 #@! TA.AperFunction,ComponentPad*
%ADD16C,2.050000*%
G04 #@! TD*
G04 #@! TA.AperFunction,ComponentPad*
%ADD17C,2.250000*%
G04 #@! TD*
G04 #@! TA.AperFunction,SMDPad,CuDef*
%ADD18C,1.300000*%
G04 #@! TD*
G04 #@! TA.AperFunction,SMDPad,CuDef*
%ADD19R,0.700000X0.450000*%
G04 #@! TD*
G04 #@! TA.AperFunction,SMDPad,CuDef*
%ADD20R,2.200000X1.200000*%
G04 #@! TD*
G04 #@! TA.AperFunction,SMDPad,CuDef*
%ADD21R,6.400000X5.800000*%
G04 #@! TD*
G04 #@! TA.AperFunction,SMDPad,CuDef*
%ADD22R,0.760000X1.280000*%
G04 #@! TD*
G04 #@! TA.AperFunction,SMDPad,CuDef*
%ADD23R,1.280000X0.940000*%
G04 #@! TD*
G04 #@! TA.AperFunction,ComponentPad*
%ADD24C,1.500000*%
G04 #@! TD*
G04 #@! TA.AperFunction,ViaPad*
%ADD25C,0.800000*%
G04 #@! TD*
G04 #@! TA.AperFunction,Conductor*
%ADD26C,1.000000*%
G04 #@! TD*
G04 #@! TA.AperFunction,Conductor*
%ADD27C,0.500000*%
G04 #@! TD*
G04 #@! TA.AperFunction,Conductor*
%ADD28C,2.000000*%
G04 #@! TD*
G04 APERTURE END LIST*
D10*
G04 #@! TO.N,Net-(C10-Pad1)*
G04 #@! TO.C,C10*
G36*
X145011505Y-80327204D02*
X145035773Y-80330804D01*
X145059572Y-80336765D01*
X145082671Y-80345030D01*
X145104850Y-80355520D01*
X145125893Y-80368132D01*
X145145599Y-80382747D01*
X145163777Y-80399223D01*
X145180253Y-80417401D01*
X145194868Y-80437107D01*
X145207480Y-80458150D01*
X145217970Y-80480329D01*
X145226235Y-80503428D01*
X145232196Y-80527227D01*
X145235796Y-80551495D01*
X145237000Y-80575999D01*
X145237000Y-81476001D01*
X145235796Y-81500505D01*
X145232196Y-81524773D01*
X145226235Y-81548572D01*
X145217970Y-81571671D01*
X145207480Y-81593850D01*
X145194868Y-81614893D01*
X145180253Y-81634599D01*
X145163777Y-81652777D01*
X145145599Y-81669253D01*
X145125893Y-81683868D01*
X145104850Y-81696480D01*
X145082671Y-81706970D01*
X145059572Y-81715235D01*
X145035773Y-81721196D01*
X145011505Y-81724796D01*
X144987001Y-81726000D01*
X144336999Y-81726000D01*
X144312495Y-81724796D01*
X144288227Y-81721196D01*
X144264428Y-81715235D01*
X144241329Y-81706970D01*
X144219150Y-81696480D01*
X144198107Y-81683868D01*
X144178401Y-81669253D01*
X144160223Y-81652777D01*
X144143747Y-81634599D01*
X144129132Y-81614893D01*
X144116520Y-81593850D01*
X144106030Y-81571671D01*
X144097765Y-81548572D01*
X144091804Y-81524773D01*
X144088204Y-81500505D01*
X144087000Y-81476001D01*
X144087000Y-80575999D01*
X144088204Y-80551495D01*
X144091804Y-80527227D01*
X144097765Y-80503428D01*
X144106030Y-80480329D01*
X144116520Y-80458150D01*
X144129132Y-80437107D01*
X144143747Y-80417401D01*
X144160223Y-80399223D01*
X144178401Y-80382747D01*
X144198107Y-80368132D01*
X144219150Y-80355520D01*
X144241329Y-80345030D01*
X144264428Y-80336765D01*
X144288227Y-80330804D01*
X144312495Y-80327204D01*
X144336999Y-80326000D01*
X144987001Y-80326000D01*
X145011505Y-80327204D01*
X145011505Y-80327204D01*
G37*
D11*
G04 #@! TD*
G04 #@! TO.P,C10,1*
G04 #@! TO.N,Net-(C10-Pad1)*
X144662000Y-81026000D03*
D10*
G04 #@! TO.N,GND*
G04 #@! TO.C,C10*
G36*
X142961505Y-80327204D02*
X142985773Y-80330804D01*
X143009572Y-80336765D01*
X143032671Y-80345030D01*
X143054850Y-80355520D01*
X143075893Y-80368132D01*
X143095599Y-80382747D01*
X143113777Y-80399223D01*
X143130253Y-80417401D01*
X143144868Y-80437107D01*
X143157480Y-80458150D01*
X143167970Y-80480329D01*
X143176235Y-80503428D01*
X143182196Y-80527227D01*
X143185796Y-80551495D01*
X143187000Y-80575999D01*
X143187000Y-81476001D01*
X143185796Y-81500505D01*
X143182196Y-81524773D01*
X143176235Y-81548572D01*
X143167970Y-81571671D01*
X143157480Y-81593850D01*
X143144868Y-81614893D01*
X143130253Y-81634599D01*
X143113777Y-81652777D01*
X143095599Y-81669253D01*
X143075893Y-81683868D01*
X143054850Y-81696480D01*
X143032671Y-81706970D01*
X143009572Y-81715235D01*
X142985773Y-81721196D01*
X142961505Y-81724796D01*
X142937001Y-81726000D01*
X142286999Y-81726000D01*
X142262495Y-81724796D01*
X142238227Y-81721196D01*
X142214428Y-81715235D01*
X142191329Y-81706970D01*
X142169150Y-81696480D01*
X142148107Y-81683868D01*
X142128401Y-81669253D01*
X142110223Y-81652777D01*
X142093747Y-81634599D01*
X142079132Y-81614893D01*
X142066520Y-81593850D01*
X142056030Y-81571671D01*
X142047765Y-81548572D01*
X142041804Y-81524773D01*
X142038204Y-81500505D01*
X142037000Y-81476001D01*
X142037000Y-80575999D01*
X142038204Y-80551495D01*
X142041804Y-80527227D01*
X142047765Y-80503428D01*
X142056030Y-80480329D01*
X142066520Y-80458150D01*
X142079132Y-80437107D01*
X142093747Y-80417401D01*
X142110223Y-80399223D01*
X142128401Y-80382747D01*
X142148107Y-80368132D01*
X142169150Y-80355520D01*
X142191329Y-80345030D01*
X142214428Y-80336765D01*
X142238227Y-80330804D01*
X142262495Y-80327204D01*
X142286999Y-80326000D01*
X142937001Y-80326000D01*
X142961505Y-80327204D01*
X142961505Y-80327204D01*
G37*
D11*
G04 #@! TD*
G04 #@! TO.P,C10,2*
G04 #@! TO.N,GND*
X142612000Y-81026000D03*
D10*
G04 #@! TO.N,Net-(C11-Pad1)*
G04 #@! TO.C,C11*
G36*
X128720504Y-95577204D02*
X128744773Y-95580804D01*
X128768571Y-95586765D01*
X128791671Y-95595030D01*
X128813849Y-95605520D01*
X128834893Y-95618133D01*
X128854598Y-95632747D01*
X128872777Y-95649223D01*
X128889253Y-95667402D01*
X128903867Y-95687107D01*
X128916480Y-95708151D01*
X128926970Y-95730329D01*
X128935235Y-95753429D01*
X128941196Y-95777227D01*
X128944796Y-95801496D01*
X128946000Y-95826000D01*
X128946000Y-97976000D01*
X128944796Y-98000504D01*
X128941196Y-98024773D01*
X128935235Y-98048571D01*
X128926970Y-98071671D01*
X128916480Y-98093849D01*
X128903867Y-98114893D01*
X128889253Y-98134598D01*
X128872777Y-98152777D01*
X128854598Y-98169253D01*
X128834893Y-98183867D01*
X128813849Y-98196480D01*
X128791671Y-98206970D01*
X128768571Y-98215235D01*
X128744773Y-98221196D01*
X128720504Y-98224796D01*
X128696000Y-98226000D01*
X127771000Y-98226000D01*
X127746496Y-98224796D01*
X127722227Y-98221196D01*
X127698429Y-98215235D01*
X127675329Y-98206970D01*
X127653151Y-98196480D01*
X127632107Y-98183867D01*
X127612402Y-98169253D01*
X127594223Y-98152777D01*
X127577747Y-98134598D01*
X127563133Y-98114893D01*
X127550520Y-98093849D01*
X127540030Y-98071671D01*
X127531765Y-98048571D01*
X127525804Y-98024773D01*
X127522204Y-98000504D01*
X127521000Y-97976000D01*
X127521000Y-95826000D01*
X127522204Y-95801496D01*
X127525804Y-95777227D01*
X127531765Y-95753429D01*
X127540030Y-95730329D01*
X127550520Y-95708151D01*
X127563133Y-95687107D01*
X127577747Y-95667402D01*
X127594223Y-95649223D01*
X127612402Y-95632747D01*
X127632107Y-95618133D01*
X127653151Y-95605520D01*
X127675329Y-95595030D01*
X127698429Y-95586765D01*
X127722227Y-95580804D01*
X127746496Y-95577204D01*
X127771000Y-95576000D01*
X128696000Y-95576000D01*
X128720504Y-95577204D01*
X128720504Y-95577204D01*
G37*
D12*
G04 #@! TD*
G04 #@! TO.P,C11,1*
G04 #@! TO.N,Net-(C11-Pad1)*
X128233500Y-96901000D03*
D10*
G04 #@! TO.N,GND*
G04 #@! TO.C,C11*
G36*
X125745504Y-95577204D02*
X125769773Y-95580804D01*
X125793571Y-95586765D01*
X125816671Y-95595030D01*
X125838849Y-95605520D01*
X125859893Y-95618133D01*
X125879598Y-95632747D01*
X125897777Y-95649223D01*
X125914253Y-95667402D01*
X125928867Y-95687107D01*
X125941480Y-95708151D01*
X125951970Y-95730329D01*
X125960235Y-95753429D01*
X125966196Y-95777227D01*
X125969796Y-95801496D01*
X125971000Y-95826000D01*
X125971000Y-97976000D01*
X125969796Y-98000504D01*
X125966196Y-98024773D01*
X125960235Y-98048571D01*
X125951970Y-98071671D01*
X125941480Y-98093849D01*
X125928867Y-98114893D01*
X125914253Y-98134598D01*
X125897777Y-98152777D01*
X125879598Y-98169253D01*
X125859893Y-98183867D01*
X125838849Y-98196480D01*
X125816671Y-98206970D01*
X125793571Y-98215235D01*
X125769773Y-98221196D01*
X125745504Y-98224796D01*
X125721000Y-98226000D01*
X124796000Y-98226000D01*
X124771496Y-98224796D01*
X124747227Y-98221196D01*
X124723429Y-98215235D01*
X124700329Y-98206970D01*
X124678151Y-98196480D01*
X124657107Y-98183867D01*
X124637402Y-98169253D01*
X124619223Y-98152777D01*
X124602747Y-98134598D01*
X124588133Y-98114893D01*
X124575520Y-98093849D01*
X124565030Y-98071671D01*
X124556765Y-98048571D01*
X124550804Y-98024773D01*
X124547204Y-98000504D01*
X124546000Y-97976000D01*
X124546000Y-95826000D01*
X124547204Y-95801496D01*
X124550804Y-95777227D01*
X124556765Y-95753429D01*
X124565030Y-95730329D01*
X124575520Y-95708151D01*
X124588133Y-95687107D01*
X124602747Y-95667402D01*
X124619223Y-95649223D01*
X124637402Y-95632747D01*
X124657107Y-95618133D01*
X124678151Y-95605520D01*
X124700329Y-95595030D01*
X124723429Y-95586765D01*
X124747227Y-95580804D01*
X124771496Y-95577204D01*
X124796000Y-95576000D01*
X125721000Y-95576000D01*
X125745504Y-95577204D01*
X125745504Y-95577204D01*
G37*
D12*
G04 #@! TD*
G04 #@! TO.P,C11,2*
G04 #@! TO.N,GND*
X125258500Y-96901000D03*
D10*
G04 #@! TO.N,GND*
G04 #@! TO.C,R7*
G36*
X132674505Y-96329204D02*
X132698773Y-96332804D01*
X132722572Y-96338765D01*
X132745671Y-96347030D01*
X132767850Y-96357520D01*
X132788893Y-96370132D01*
X132808599Y-96384747D01*
X132826777Y-96401223D01*
X132843253Y-96419401D01*
X132857868Y-96439107D01*
X132870480Y-96460150D01*
X132880970Y-96482329D01*
X132889235Y-96505428D01*
X132895196Y-96529227D01*
X132898796Y-96553495D01*
X132900000Y-96577999D01*
X132900000Y-97478001D01*
X132898796Y-97502505D01*
X132895196Y-97526773D01*
X132889235Y-97550572D01*
X132880970Y-97573671D01*
X132870480Y-97595850D01*
X132857868Y-97616893D01*
X132843253Y-97636599D01*
X132826777Y-97654777D01*
X132808599Y-97671253D01*
X132788893Y-97685868D01*
X132767850Y-97698480D01*
X132745671Y-97708970D01*
X132722572Y-97717235D01*
X132698773Y-97723196D01*
X132674505Y-97726796D01*
X132650001Y-97728000D01*
X131999999Y-97728000D01*
X131975495Y-97726796D01*
X131951227Y-97723196D01*
X131927428Y-97717235D01*
X131904329Y-97708970D01*
X131882150Y-97698480D01*
X131861107Y-97685868D01*
X131841401Y-97671253D01*
X131823223Y-97654777D01*
X131806747Y-97636599D01*
X131792132Y-97616893D01*
X131779520Y-97595850D01*
X131769030Y-97573671D01*
X131760765Y-97550572D01*
X131754804Y-97526773D01*
X131751204Y-97502505D01*
X131750000Y-97478001D01*
X131750000Y-96577999D01*
X131751204Y-96553495D01*
X131754804Y-96529227D01*
X131760765Y-96505428D01*
X131769030Y-96482329D01*
X131779520Y-96460150D01*
X131792132Y-96439107D01*
X131806747Y-96419401D01*
X131823223Y-96401223D01*
X131841401Y-96384747D01*
X131861107Y-96370132D01*
X131882150Y-96357520D01*
X131904329Y-96347030D01*
X131927428Y-96338765D01*
X131951227Y-96332804D01*
X131975495Y-96329204D01*
X131999999Y-96328000D01*
X132650001Y-96328000D01*
X132674505Y-96329204D01*
X132674505Y-96329204D01*
G37*
D11*
G04 #@! TD*
G04 #@! TO.P,R7,1*
G04 #@! TO.N,GND*
X132325000Y-97028000D03*
D10*
G04 #@! TO.N,Net-(C11-Pad1)*
G04 #@! TO.C,R7*
G36*
X134724505Y-96329204D02*
X134748773Y-96332804D01*
X134772572Y-96338765D01*
X134795671Y-96347030D01*
X134817850Y-96357520D01*
X134838893Y-96370132D01*
X134858599Y-96384747D01*
X134876777Y-96401223D01*
X134893253Y-96419401D01*
X134907868Y-96439107D01*
X134920480Y-96460150D01*
X134930970Y-96482329D01*
X134939235Y-96505428D01*
X134945196Y-96529227D01*
X134948796Y-96553495D01*
X134950000Y-96577999D01*
X134950000Y-97478001D01*
X134948796Y-97502505D01*
X134945196Y-97526773D01*
X134939235Y-97550572D01*
X134930970Y-97573671D01*
X134920480Y-97595850D01*
X134907868Y-97616893D01*
X134893253Y-97636599D01*
X134876777Y-97654777D01*
X134858599Y-97671253D01*
X134838893Y-97685868D01*
X134817850Y-97698480D01*
X134795671Y-97708970D01*
X134772572Y-97717235D01*
X134748773Y-97723196D01*
X134724505Y-97726796D01*
X134700001Y-97728000D01*
X134049999Y-97728000D01*
X134025495Y-97726796D01*
X134001227Y-97723196D01*
X133977428Y-97717235D01*
X133954329Y-97708970D01*
X133932150Y-97698480D01*
X133911107Y-97685868D01*
X133891401Y-97671253D01*
X133873223Y-97654777D01*
X133856747Y-97636599D01*
X133842132Y-97616893D01*
X133829520Y-97595850D01*
X133819030Y-97573671D01*
X133810765Y-97550572D01*
X133804804Y-97526773D01*
X133801204Y-97502505D01*
X133800000Y-97478001D01*
X133800000Y-96577999D01*
X133801204Y-96553495D01*
X133804804Y-96529227D01*
X133810765Y-96505428D01*
X133819030Y-96482329D01*
X133829520Y-96460150D01*
X133842132Y-96439107D01*
X133856747Y-96419401D01*
X133873223Y-96401223D01*
X133891401Y-96384747D01*
X133911107Y-96370132D01*
X133932150Y-96357520D01*
X133954329Y-96347030D01*
X133977428Y-96338765D01*
X134001227Y-96332804D01*
X134025495Y-96329204D01*
X134049999Y-96328000D01*
X134700001Y-96328000D01*
X134724505Y-96329204D01*
X134724505Y-96329204D01*
G37*
D11*
G04 #@! TD*
G04 #@! TO.P,R7,2*
G04 #@! TO.N,Net-(C11-Pad1)*
X134375000Y-97028000D03*
D10*
G04 #@! TO.N,Net-(C2-Pad1)*
G04 #@! TO.C,R6*
G36*
X139931505Y-96329204D02*
X139955773Y-96332804D01*
X139979572Y-96338765D01*
X140002671Y-96347030D01*
X140024850Y-96357520D01*
X140045893Y-96370132D01*
X140065599Y-96384747D01*
X140083777Y-96401223D01*
X140100253Y-96419401D01*
X140114868Y-96439107D01*
X140127480Y-96460150D01*
X140137970Y-96482329D01*
X140146235Y-96505428D01*
X140152196Y-96529227D01*
X140155796Y-96553495D01*
X140157000Y-96577999D01*
X140157000Y-97478001D01*
X140155796Y-97502505D01*
X140152196Y-97526773D01*
X140146235Y-97550572D01*
X140137970Y-97573671D01*
X140127480Y-97595850D01*
X140114868Y-97616893D01*
X140100253Y-97636599D01*
X140083777Y-97654777D01*
X140065599Y-97671253D01*
X140045893Y-97685868D01*
X140024850Y-97698480D01*
X140002671Y-97708970D01*
X139979572Y-97717235D01*
X139955773Y-97723196D01*
X139931505Y-97726796D01*
X139907001Y-97728000D01*
X139256999Y-97728000D01*
X139232495Y-97726796D01*
X139208227Y-97723196D01*
X139184428Y-97717235D01*
X139161329Y-97708970D01*
X139139150Y-97698480D01*
X139118107Y-97685868D01*
X139098401Y-97671253D01*
X139080223Y-97654777D01*
X139063747Y-97636599D01*
X139049132Y-97616893D01*
X139036520Y-97595850D01*
X139026030Y-97573671D01*
X139017765Y-97550572D01*
X139011804Y-97526773D01*
X139008204Y-97502505D01*
X139007000Y-97478001D01*
X139007000Y-96577999D01*
X139008204Y-96553495D01*
X139011804Y-96529227D01*
X139017765Y-96505428D01*
X139026030Y-96482329D01*
X139036520Y-96460150D01*
X139049132Y-96439107D01*
X139063747Y-96419401D01*
X139080223Y-96401223D01*
X139098401Y-96384747D01*
X139118107Y-96370132D01*
X139139150Y-96357520D01*
X139161329Y-96347030D01*
X139184428Y-96338765D01*
X139208227Y-96332804D01*
X139232495Y-96329204D01*
X139256999Y-96328000D01*
X139907001Y-96328000D01*
X139931505Y-96329204D01*
X139931505Y-96329204D01*
G37*
D11*
G04 #@! TD*
G04 #@! TO.P,R6,2*
G04 #@! TO.N,Net-(C2-Pad1)*
X139582000Y-97028000D03*
D10*
G04 #@! TO.N,Net-(C11-Pad1)*
G04 #@! TO.C,R6*
G36*
X137881505Y-96329204D02*
X137905773Y-96332804D01*
X137929572Y-96338765D01*
X137952671Y-96347030D01*
X137974850Y-96357520D01*
X137995893Y-96370132D01*
X138015599Y-96384747D01*
X138033777Y-96401223D01*
X138050253Y-96419401D01*
X138064868Y-96439107D01*
X138077480Y-96460150D01*
X138087970Y-96482329D01*
X138096235Y-96505428D01*
X138102196Y-96529227D01*
X138105796Y-96553495D01*
X138107000Y-96577999D01*
X138107000Y-97478001D01*
X138105796Y-97502505D01*
X138102196Y-97526773D01*
X138096235Y-97550572D01*
X138087970Y-97573671D01*
X138077480Y-97595850D01*
X138064868Y-97616893D01*
X138050253Y-97636599D01*
X138033777Y-97654777D01*
X138015599Y-97671253D01*
X137995893Y-97685868D01*
X137974850Y-97698480D01*
X137952671Y-97708970D01*
X137929572Y-97717235D01*
X137905773Y-97723196D01*
X137881505Y-97726796D01*
X137857001Y-97728000D01*
X137206999Y-97728000D01*
X137182495Y-97726796D01*
X137158227Y-97723196D01*
X137134428Y-97717235D01*
X137111329Y-97708970D01*
X137089150Y-97698480D01*
X137068107Y-97685868D01*
X137048401Y-97671253D01*
X137030223Y-97654777D01*
X137013747Y-97636599D01*
X136999132Y-97616893D01*
X136986520Y-97595850D01*
X136976030Y-97573671D01*
X136967765Y-97550572D01*
X136961804Y-97526773D01*
X136958204Y-97502505D01*
X136957000Y-97478001D01*
X136957000Y-96577999D01*
X136958204Y-96553495D01*
X136961804Y-96529227D01*
X136967765Y-96505428D01*
X136976030Y-96482329D01*
X136986520Y-96460150D01*
X136999132Y-96439107D01*
X137013747Y-96419401D01*
X137030223Y-96401223D01*
X137048401Y-96384747D01*
X137068107Y-96370132D01*
X137089150Y-96357520D01*
X137111329Y-96347030D01*
X137134428Y-96338765D01*
X137158227Y-96332804D01*
X137182495Y-96329204D01*
X137206999Y-96328000D01*
X137857001Y-96328000D01*
X137881505Y-96329204D01*
X137881505Y-96329204D01*
G37*
D11*
G04 #@! TD*
G04 #@! TO.P,R6,1*
G04 #@! TO.N,Net-(C11-Pad1)*
X137532000Y-97028000D03*
D13*
G04 #@! TO.P,Q2,1*
G04 #@! TO.N,Net-(C11-Pad1)*
X143322000Y-98282000D03*
G04 #@! TO.P,Q2,2*
G04 #@! TO.N,Net-(Q2-Pad2)*
X145222000Y-98282000D03*
G04 #@! TO.P,Q2,3*
G04 #@! TO.N,Net-(C2-Pad1)*
X144272000Y-96282000D03*
G04 #@! TD*
D10*
G04 #@! TO.N,Net-(C1-Pad1)*
G04 #@! TO.C,C1*
G36*
X126829504Y-78246204D02*
X126853773Y-78249804D01*
X126877571Y-78255765D01*
X126900671Y-78264030D01*
X126922849Y-78274520D01*
X126943893Y-78287133D01*
X126963598Y-78301747D01*
X126981777Y-78318223D01*
X126998253Y-78336402D01*
X127012867Y-78356107D01*
X127025480Y-78377151D01*
X127035970Y-78399329D01*
X127044235Y-78422429D01*
X127050196Y-78446227D01*
X127053796Y-78470496D01*
X127055000Y-78495000D01*
X127055000Y-79420000D01*
X127053796Y-79444504D01*
X127050196Y-79468773D01*
X127044235Y-79492571D01*
X127035970Y-79515671D01*
X127025480Y-79537849D01*
X127012867Y-79558893D01*
X126998253Y-79578598D01*
X126981777Y-79596777D01*
X126963598Y-79613253D01*
X126943893Y-79627867D01*
X126922849Y-79640480D01*
X126900671Y-79650970D01*
X126877571Y-79659235D01*
X126853773Y-79665196D01*
X126829504Y-79668796D01*
X126805000Y-79670000D01*
X124655000Y-79670000D01*
X124630496Y-79668796D01*
X124606227Y-79665196D01*
X124582429Y-79659235D01*
X124559329Y-79650970D01*
X124537151Y-79640480D01*
X124516107Y-79627867D01*
X124496402Y-79613253D01*
X124478223Y-79596777D01*
X124461747Y-79578598D01*
X124447133Y-79558893D01*
X124434520Y-79537849D01*
X124424030Y-79515671D01*
X124415765Y-79492571D01*
X124409804Y-79468773D01*
X124406204Y-79444504D01*
X124405000Y-79420000D01*
X124405000Y-78495000D01*
X124406204Y-78470496D01*
X124409804Y-78446227D01*
X124415765Y-78422429D01*
X124424030Y-78399329D01*
X124434520Y-78377151D01*
X124447133Y-78356107D01*
X124461747Y-78336402D01*
X124478223Y-78318223D01*
X124496402Y-78301747D01*
X124516107Y-78287133D01*
X124537151Y-78274520D01*
X124559329Y-78264030D01*
X124582429Y-78255765D01*
X124606227Y-78249804D01*
X124630496Y-78246204D01*
X124655000Y-78245000D01*
X126805000Y-78245000D01*
X126829504Y-78246204D01*
X126829504Y-78246204D01*
G37*
D12*
G04 #@! TD*
G04 #@! TO.P,C1,1*
G04 #@! TO.N,Net-(C1-Pad1)*
X125730000Y-78957500D03*
D10*
G04 #@! TO.N,GND*
G04 #@! TO.C,C1*
G36*
X126829504Y-75271204D02*
X126853773Y-75274804D01*
X126877571Y-75280765D01*
X126900671Y-75289030D01*
X126922849Y-75299520D01*
X126943893Y-75312133D01*
X126963598Y-75326747D01*
X126981777Y-75343223D01*
X126998253Y-75361402D01*
X127012867Y-75381107D01*
X127025480Y-75402151D01*
X127035970Y-75424329D01*
X127044235Y-75447429D01*
X127050196Y-75471227D01*
X127053796Y-75495496D01*
X127055000Y-75520000D01*
X127055000Y-76445000D01*
X127053796Y-76469504D01*
X127050196Y-76493773D01*
X127044235Y-76517571D01*
X127035970Y-76540671D01*
X127025480Y-76562849D01*
X127012867Y-76583893D01*
X126998253Y-76603598D01*
X126981777Y-76621777D01*
X126963598Y-76638253D01*
X126943893Y-76652867D01*
X126922849Y-76665480D01*
X126900671Y-76675970D01*
X126877571Y-76684235D01*
X126853773Y-76690196D01*
X126829504Y-76693796D01*
X126805000Y-76695000D01*
X124655000Y-76695000D01*
X124630496Y-76693796D01*
X124606227Y-76690196D01*
X124582429Y-76684235D01*
X124559329Y-76675970D01*
X124537151Y-76665480D01*
X124516107Y-76652867D01*
X124496402Y-76638253D01*
X124478223Y-76621777D01*
X124461747Y-76603598D01*
X124447133Y-76583893D01*
X124434520Y-76562849D01*
X124424030Y-76540671D01*
X124415765Y-76517571D01*
X124409804Y-76493773D01*
X124406204Y-76469504D01*
X124405000Y-76445000D01*
X124405000Y-75520000D01*
X124406204Y-75495496D01*
X124409804Y-75471227D01*
X124415765Y-75447429D01*
X124424030Y-75424329D01*
X124434520Y-75402151D01*
X124447133Y-75381107D01*
X124461747Y-75361402D01*
X124478223Y-75343223D01*
X124496402Y-75326747D01*
X124516107Y-75312133D01*
X124537151Y-75299520D01*
X124559329Y-75289030D01*
X124582429Y-75280765D01*
X124606227Y-75274804D01*
X124630496Y-75271204D01*
X124655000Y-75270000D01*
X126805000Y-75270000D01*
X126829504Y-75271204D01*
X126829504Y-75271204D01*
G37*
D12*
G04 #@! TD*
G04 #@! TO.P,C1,2*
G04 #@! TO.N,GND*
X125730000Y-75982500D03*
D10*
G04 #@! TO.N,GND*
G04 #@! TO.C,C2*
G36*
X156949505Y-82486204D02*
X156973773Y-82489804D01*
X156997572Y-82495765D01*
X157020671Y-82504030D01*
X157042850Y-82514520D01*
X157063893Y-82527132D01*
X157083599Y-82541747D01*
X157101777Y-82558223D01*
X157118253Y-82576401D01*
X157132868Y-82596107D01*
X157145480Y-82617150D01*
X157155970Y-82639329D01*
X157164235Y-82662428D01*
X157170196Y-82686227D01*
X157173796Y-82710495D01*
X157175000Y-82734999D01*
X157175000Y-83635001D01*
X157173796Y-83659505D01*
X157170196Y-83683773D01*
X157164235Y-83707572D01*
X157155970Y-83730671D01*
X157145480Y-83752850D01*
X157132868Y-83773893D01*
X157118253Y-83793599D01*
X157101777Y-83811777D01*
X157083599Y-83828253D01*
X157063893Y-83842868D01*
X157042850Y-83855480D01*
X157020671Y-83865970D01*
X156997572Y-83874235D01*
X156973773Y-83880196D01*
X156949505Y-83883796D01*
X156925001Y-83885000D01*
X156274999Y-83885000D01*
X156250495Y-83883796D01*
X156226227Y-83880196D01*
X156202428Y-83874235D01*
X156179329Y-83865970D01*
X156157150Y-83855480D01*
X156136107Y-83842868D01*
X156116401Y-83828253D01*
X156098223Y-83811777D01*
X156081747Y-83793599D01*
X156067132Y-83773893D01*
X156054520Y-83752850D01*
X156044030Y-83730671D01*
X156035765Y-83707572D01*
X156029804Y-83683773D01*
X156026204Y-83659505D01*
X156025000Y-83635001D01*
X156025000Y-82734999D01*
X156026204Y-82710495D01*
X156029804Y-82686227D01*
X156035765Y-82662428D01*
X156044030Y-82639329D01*
X156054520Y-82617150D01*
X156067132Y-82596107D01*
X156081747Y-82576401D01*
X156098223Y-82558223D01*
X156116401Y-82541747D01*
X156136107Y-82527132D01*
X156157150Y-82514520D01*
X156179329Y-82504030D01*
X156202428Y-82495765D01*
X156226227Y-82489804D01*
X156250495Y-82486204D01*
X156274999Y-82485000D01*
X156925001Y-82485000D01*
X156949505Y-82486204D01*
X156949505Y-82486204D01*
G37*
D11*
G04 #@! TD*
G04 #@! TO.P,C2,2*
G04 #@! TO.N,GND*
X156600000Y-83185000D03*
D10*
G04 #@! TO.N,Net-(C2-Pad1)*
G04 #@! TO.C,C2*
G36*
X154899505Y-82486204D02*
X154923773Y-82489804D01*
X154947572Y-82495765D01*
X154970671Y-82504030D01*
X154992850Y-82514520D01*
X155013893Y-82527132D01*
X155033599Y-82541747D01*
X155051777Y-82558223D01*
X155068253Y-82576401D01*
X155082868Y-82596107D01*
X155095480Y-82617150D01*
X155105970Y-82639329D01*
X155114235Y-82662428D01*
X155120196Y-82686227D01*
X155123796Y-82710495D01*
X155125000Y-82734999D01*
X155125000Y-83635001D01*
X155123796Y-83659505D01*
X155120196Y-83683773D01*
X155114235Y-83707572D01*
X155105970Y-83730671D01*
X155095480Y-83752850D01*
X155082868Y-83773893D01*
X155068253Y-83793599D01*
X155051777Y-83811777D01*
X155033599Y-83828253D01*
X155013893Y-83842868D01*
X154992850Y-83855480D01*
X154970671Y-83865970D01*
X154947572Y-83874235D01*
X154923773Y-83880196D01*
X154899505Y-83883796D01*
X154875001Y-83885000D01*
X154224999Y-83885000D01*
X154200495Y-83883796D01*
X154176227Y-83880196D01*
X154152428Y-83874235D01*
X154129329Y-83865970D01*
X154107150Y-83855480D01*
X154086107Y-83842868D01*
X154066401Y-83828253D01*
X154048223Y-83811777D01*
X154031747Y-83793599D01*
X154017132Y-83773893D01*
X154004520Y-83752850D01*
X153994030Y-83730671D01*
X153985765Y-83707572D01*
X153979804Y-83683773D01*
X153976204Y-83659505D01*
X153975000Y-83635001D01*
X153975000Y-82734999D01*
X153976204Y-82710495D01*
X153979804Y-82686227D01*
X153985765Y-82662428D01*
X153994030Y-82639329D01*
X154004520Y-82617150D01*
X154017132Y-82596107D01*
X154031747Y-82576401D01*
X154048223Y-82558223D01*
X154066401Y-82541747D01*
X154086107Y-82527132D01*
X154107150Y-82514520D01*
X154129329Y-82504030D01*
X154152428Y-82495765D01*
X154176227Y-82489804D01*
X154200495Y-82486204D01*
X154224999Y-82485000D01*
X154875001Y-82485000D01*
X154899505Y-82486204D01*
X154899505Y-82486204D01*
G37*
D11*
G04 #@! TD*
G04 #@! TO.P,C2,1*
G04 #@! TO.N,Net-(C2-Pad1)*
X154550000Y-83185000D03*
D10*
G04 #@! TO.N,Net-(C4-Pad2)*
G04 #@! TO.C,C4*
G36*
X145392505Y-92138204D02*
X145416773Y-92141804D01*
X145440572Y-92147765D01*
X145463671Y-92156030D01*
X145485850Y-92166520D01*
X145506893Y-92179132D01*
X145526599Y-92193747D01*
X145544777Y-92210223D01*
X145561253Y-92228401D01*
X145575868Y-92248107D01*
X145588480Y-92269150D01*
X145598970Y-92291329D01*
X145607235Y-92314428D01*
X145613196Y-92338227D01*
X145616796Y-92362495D01*
X145618000Y-92386999D01*
X145618000Y-93287001D01*
X145616796Y-93311505D01*
X145613196Y-93335773D01*
X145607235Y-93359572D01*
X145598970Y-93382671D01*
X145588480Y-93404850D01*
X145575868Y-93425893D01*
X145561253Y-93445599D01*
X145544777Y-93463777D01*
X145526599Y-93480253D01*
X145506893Y-93494868D01*
X145485850Y-93507480D01*
X145463671Y-93517970D01*
X145440572Y-93526235D01*
X145416773Y-93532196D01*
X145392505Y-93535796D01*
X145368001Y-93537000D01*
X144717999Y-93537000D01*
X144693495Y-93535796D01*
X144669227Y-93532196D01*
X144645428Y-93526235D01*
X144622329Y-93517970D01*
X144600150Y-93507480D01*
X144579107Y-93494868D01*
X144559401Y-93480253D01*
X144541223Y-93463777D01*
X144524747Y-93445599D01*
X144510132Y-93425893D01*
X144497520Y-93404850D01*
X144487030Y-93382671D01*
X144478765Y-93359572D01*
X144472804Y-93335773D01*
X144469204Y-93311505D01*
X144468000Y-93287001D01*
X144468000Y-92386999D01*
X144469204Y-92362495D01*
X144472804Y-92338227D01*
X144478765Y-92314428D01*
X144487030Y-92291329D01*
X144497520Y-92269150D01*
X144510132Y-92248107D01*
X144524747Y-92228401D01*
X144541223Y-92210223D01*
X144559401Y-92193747D01*
X144579107Y-92179132D01*
X144600150Y-92166520D01*
X144622329Y-92156030D01*
X144645428Y-92147765D01*
X144669227Y-92141804D01*
X144693495Y-92138204D01*
X144717999Y-92137000D01*
X145368001Y-92137000D01*
X145392505Y-92138204D01*
X145392505Y-92138204D01*
G37*
D11*
G04 #@! TD*
G04 #@! TO.P,C4,2*
G04 #@! TO.N,Net-(C4-Pad2)*
X145043000Y-92837000D03*
D10*
G04 #@! TO.N,Net-(C4-Pad1)*
G04 #@! TO.C,C4*
G36*
X143342505Y-92138204D02*
X143366773Y-92141804D01*
X143390572Y-92147765D01*
X143413671Y-92156030D01*
X143435850Y-92166520D01*
X143456893Y-92179132D01*
X143476599Y-92193747D01*
X143494777Y-92210223D01*
X143511253Y-92228401D01*
X143525868Y-92248107D01*
X143538480Y-92269150D01*
X143548970Y-92291329D01*
X143557235Y-92314428D01*
X143563196Y-92338227D01*
X143566796Y-92362495D01*
X143568000Y-92386999D01*
X143568000Y-93287001D01*
X143566796Y-93311505D01*
X143563196Y-93335773D01*
X143557235Y-93359572D01*
X143548970Y-93382671D01*
X143538480Y-93404850D01*
X143525868Y-93425893D01*
X143511253Y-93445599D01*
X143494777Y-93463777D01*
X143476599Y-93480253D01*
X143456893Y-93494868D01*
X143435850Y-93507480D01*
X143413671Y-93517970D01*
X143390572Y-93526235D01*
X143366773Y-93532196D01*
X143342505Y-93535796D01*
X143318001Y-93537000D01*
X142667999Y-93537000D01*
X142643495Y-93535796D01*
X142619227Y-93532196D01*
X142595428Y-93526235D01*
X142572329Y-93517970D01*
X142550150Y-93507480D01*
X142529107Y-93494868D01*
X142509401Y-93480253D01*
X142491223Y-93463777D01*
X142474747Y-93445599D01*
X142460132Y-93425893D01*
X142447520Y-93404850D01*
X142437030Y-93382671D01*
X142428765Y-93359572D01*
X142422804Y-93335773D01*
X142419204Y-93311505D01*
X142418000Y-93287001D01*
X142418000Y-92386999D01*
X142419204Y-92362495D01*
X142422804Y-92338227D01*
X142428765Y-92314428D01*
X142437030Y-92291329D01*
X142447520Y-92269150D01*
X142460132Y-92248107D01*
X142474747Y-92228401D01*
X142491223Y-92210223D01*
X142509401Y-92193747D01*
X142529107Y-92179132D01*
X142550150Y-92166520D01*
X142572329Y-92156030D01*
X142595428Y-92147765D01*
X142619227Y-92141804D01*
X142643495Y-92138204D01*
X142667999Y-92137000D01*
X143318001Y-92137000D01*
X143342505Y-92138204D01*
X143342505Y-92138204D01*
G37*
D11*
G04 #@! TD*
G04 #@! TO.P,C4,1*
G04 #@! TO.N,Net-(C4-Pad1)*
X142993000Y-92837000D03*
D10*
G04 #@! TO.N,Net-(C5-Pad1)*
G04 #@! TO.C,C5*
G36*
X143342505Y-89598204D02*
X143366773Y-89601804D01*
X143390572Y-89607765D01*
X143413671Y-89616030D01*
X143435850Y-89626520D01*
X143456893Y-89639132D01*
X143476599Y-89653747D01*
X143494777Y-89670223D01*
X143511253Y-89688401D01*
X143525868Y-89708107D01*
X143538480Y-89729150D01*
X143548970Y-89751329D01*
X143557235Y-89774428D01*
X143563196Y-89798227D01*
X143566796Y-89822495D01*
X143568000Y-89846999D01*
X143568000Y-90747001D01*
X143566796Y-90771505D01*
X143563196Y-90795773D01*
X143557235Y-90819572D01*
X143548970Y-90842671D01*
X143538480Y-90864850D01*
X143525868Y-90885893D01*
X143511253Y-90905599D01*
X143494777Y-90923777D01*
X143476599Y-90940253D01*
X143456893Y-90954868D01*
X143435850Y-90967480D01*
X143413671Y-90977970D01*
X143390572Y-90986235D01*
X143366773Y-90992196D01*
X143342505Y-90995796D01*
X143318001Y-90997000D01*
X142667999Y-90997000D01*
X142643495Y-90995796D01*
X142619227Y-90992196D01*
X142595428Y-90986235D01*
X142572329Y-90977970D01*
X142550150Y-90967480D01*
X142529107Y-90954868D01*
X142509401Y-90940253D01*
X142491223Y-90923777D01*
X142474747Y-90905599D01*
X142460132Y-90885893D01*
X142447520Y-90864850D01*
X142437030Y-90842671D01*
X142428765Y-90819572D01*
X142422804Y-90795773D01*
X142419204Y-90771505D01*
X142418000Y-90747001D01*
X142418000Y-89846999D01*
X142419204Y-89822495D01*
X142422804Y-89798227D01*
X142428765Y-89774428D01*
X142437030Y-89751329D01*
X142447520Y-89729150D01*
X142460132Y-89708107D01*
X142474747Y-89688401D01*
X142491223Y-89670223D01*
X142509401Y-89653747D01*
X142529107Y-89639132D01*
X142550150Y-89626520D01*
X142572329Y-89616030D01*
X142595428Y-89607765D01*
X142619227Y-89601804D01*
X142643495Y-89598204D01*
X142667999Y-89597000D01*
X143318001Y-89597000D01*
X143342505Y-89598204D01*
X143342505Y-89598204D01*
G37*
D11*
G04 #@! TD*
G04 #@! TO.P,C5,1*
G04 #@! TO.N,Net-(C5-Pad1)*
X142993000Y-90297000D03*
D10*
G04 #@! TO.N,GND*
G04 #@! TO.C,C5*
G36*
X145392505Y-89598204D02*
X145416773Y-89601804D01*
X145440572Y-89607765D01*
X145463671Y-89616030D01*
X145485850Y-89626520D01*
X145506893Y-89639132D01*
X145526599Y-89653747D01*
X145544777Y-89670223D01*
X145561253Y-89688401D01*
X145575868Y-89708107D01*
X145588480Y-89729150D01*
X145598970Y-89751329D01*
X145607235Y-89774428D01*
X145613196Y-89798227D01*
X145616796Y-89822495D01*
X145618000Y-89846999D01*
X145618000Y-90747001D01*
X145616796Y-90771505D01*
X145613196Y-90795773D01*
X145607235Y-90819572D01*
X145598970Y-90842671D01*
X145588480Y-90864850D01*
X145575868Y-90885893D01*
X145561253Y-90905599D01*
X145544777Y-90923777D01*
X145526599Y-90940253D01*
X145506893Y-90954868D01*
X145485850Y-90967480D01*
X145463671Y-90977970D01*
X145440572Y-90986235D01*
X145416773Y-90992196D01*
X145392505Y-90995796D01*
X145368001Y-90997000D01*
X144717999Y-90997000D01*
X144693495Y-90995796D01*
X144669227Y-90992196D01*
X144645428Y-90986235D01*
X144622329Y-90977970D01*
X144600150Y-90967480D01*
X144579107Y-90954868D01*
X144559401Y-90940253D01*
X144541223Y-90923777D01*
X144524747Y-90905599D01*
X144510132Y-90885893D01*
X144497520Y-90864850D01*
X144487030Y-90842671D01*
X144478765Y-90819572D01*
X144472804Y-90795773D01*
X144469204Y-90771505D01*
X144468000Y-90747001D01*
X144468000Y-89846999D01*
X144469204Y-89822495D01*
X144472804Y-89798227D01*
X144478765Y-89774428D01*
X144487030Y-89751329D01*
X144497520Y-89729150D01*
X144510132Y-89708107D01*
X144524747Y-89688401D01*
X144541223Y-89670223D01*
X144559401Y-89653747D01*
X144579107Y-89639132D01*
X144600150Y-89626520D01*
X144622329Y-89616030D01*
X144645428Y-89607765D01*
X144669227Y-89601804D01*
X144693495Y-89598204D01*
X144717999Y-89597000D01*
X145368001Y-89597000D01*
X145392505Y-89598204D01*
X145392505Y-89598204D01*
G37*
D11*
G04 #@! TD*
G04 #@! TO.P,C5,2*
G04 #@! TO.N,GND*
X145043000Y-90297000D03*
D10*
G04 #@! TO.N,Net-(C6-Pad1)*
G04 #@! TO.C,C6*
G36*
X145392505Y-86550204D02*
X145416773Y-86553804D01*
X145440572Y-86559765D01*
X145463671Y-86568030D01*
X145485850Y-86578520D01*
X145506893Y-86591132D01*
X145526599Y-86605747D01*
X145544777Y-86622223D01*
X145561253Y-86640401D01*
X145575868Y-86660107D01*
X145588480Y-86681150D01*
X145598970Y-86703329D01*
X145607235Y-86726428D01*
X145613196Y-86750227D01*
X145616796Y-86774495D01*
X145618000Y-86798999D01*
X145618000Y-87699001D01*
X145616796Y-87723505D01*
X145613196Y-87747773D01*
X145607235Y-87771572D01*
X145598970Y-87794671D01*
X145588480Y-87816850D01*
X145575868Y-87837893D01*
X145561253Y-87857599D01*
X145544777Y-87875777D01*
X145526599Y-87892253D01*
X145506893Y-87906868D01*
X145485850Y-87919480D01*
X145463671Y-87929970D01*
X145440572Y-87938235D01*
X145416773Y-87944196D01*
X145392505Y-87947796D01*
X145368001Y-87949000D01*
X144717999Y-87949000D01*
X144693495Y-87947796D01*
X144669227Y-87944196D01*
X144645428Y-87938235D01*
X144622329Y-87929970D01*
X144600150Y-87919480D01*
X144579107Y-87906868D01*
X144559401Y-87892253D01*
X144541223Y-87875777D01*
X144524747Y-87857599D01*
X144510132Y-87837893D01*
X144497520Y-87816850D01*
X144487030Y-87794671D01*
X144478765Y-87771572D01*
X144472804Y-87747773D01*
X144469204Y-87723505D01*
X144468000Y-87699001D01*
X144468000Y-86798999D01*
X144469204Y-86774495D01*
X144472804Y-86750227D01*
X144478765Y-86726428D01*
X144487030Y-86703329D01*
X144497520Y-86681150D01*
X144510132Y-86660107D01*
X144524747Y-86640401D01*
X144541223Y-86622223D01*
X144559401Y-86605747D01*
X144579107Y-86591132D01*
X144600150Y-86578520D01*
X144622329Y-86568030D01*
X144645428Y-86559765D01*
X144669227Y-86553804D01*
X144693495Y-86550204D01*
X144717999Y-86549000D01*
X145368001Y-86549000D01*
X145392505Y-86550204D01*
X145392505Y-86550204D01*
G37*
D11*
G04 #@! TD*
G04 #@! TO.P,C6,1*
G04 #@! TO.N,Net-(C6-Pad1)*
X145043000Y-87249000D03*
D10*
G04 #@! TO.N,Net-(C6-Pad2)*
G04 #@! TO.C,C6*
G36*
X143342505Y-86550204D02*
X143366773Y-86553804D01*
X143390572Y-86559765D01*
X143413671Y-86568030D01*
X143435850Y-86578520D01*
X143456893Y-86591132D01*
X143476599Y-86605747D01*
X143494777Y-86622223D01*
X143511253Y-86640401D01*
X143525868Y-86660107D01*
X143538480Y-86681150D01*
X143548970Y-86703329D01*
X143557235Y-86726428D01*
X143563196Y-86750227D01*
X143566796Y-86774495D01*
X143568000Y-86798999D01*
X143568000Y-87699001D01*
X143566796Y-87723505D01*
X143563196Y-87747773D01*
X143557235Y-87771572D01*
X143548970Y-87794671D01*
X143538480Y-87816850D01*
X143525868Y-87837893D01*
X143511253Y-87857599D01*
X143494777Y-87875777D01*
X143476599Y-87892253D01*
X143456893Y-87906868D01*
X143435850Y-87919480D01*
X143413671Y-87929970D01*
X143390572Y-87938235D01*
X143366773Y-87944196D01*
X143342505Y-87947796D01*
X143318001Y-87949000D01*
X142667999Y-87949000D01*
X142643495Y-87947796D01*
X142619227Y-87944196D01*
X142595428Y-87938235D01*
X142572329Y-87929970D01*
X142550150Y-87919480D01*
X142529107Y-87906868D01*
X142509401Y-87892253D01*
X142491223Y-87875777D01*
X142474747Y-87857599D01*
X142460132Y-87837893D01*
X142447520Y-87816850D01*
X142437030Y-87794671D01*
X142428765Y-87771572D01*
X142422804Y-87747773D01*
X142419204Y-87723505D01*
X142418000Y-87699001D01*
X142418000Y-86798999D01*
X142419204Y-86774495D01*
X142422804Y-86750227D01*
X142428765Y-86726428D01*
X142437030Y-86703329D01*
X142447520Y-86681150D01*
X142460132Y-86660107D01*
X142474747Y-86640401D01*
X142491223Y-86622223D01*
X142509401Y-86605747D01*
X142529107Y-86591132D01*
X142550150Y-86578520D01*
X142572329Y-86568030D01*
X142595428Y-86559765D01*
X142619227Y-86553804D01*
X142643495Y-86550204D01*
X142667999Y-86549000D01*
X143318001Y-86549000D01*
X143342505Y-86550204D01*
X143342505Y-86550204D01*
G37*
D11*
G04 #@! TD*
G04 #@! TO.P,C6,2*
G04 #@! TO.N,Net-(C6-Pad2)*
X142993000Y-87249000D03*
D10*
G04 #@! TO.N,GND*
G04 #@! TO.C,C7*
G36*
X146644505Y-84391204D02*
X146668773Y-84394804D01*
X146692572Y-84400765D01*
X146715671Y-84409030D01*
X146737850Y-84419520D01*
X146758893Y-84432132D01*
X146778599Y-84446747D01*
X146796777Y-84463223D01*
X146813253Y-84481401D01*
X146827868Y-84501107D01*
X146840480Y-84522150D01*
X146850970Y-84544329D01*
X146859235Y-84567428D01*
X146865196Y-84591227D01*
X146868796Y-84615495D01*
X146870000Y-84639999D01*
X146870000Y-85540001D01*
X146868796Y-85564505D01*
X146865196Y-85588773D01*
X146859235Y-85612572D01*
X146850970Y-85635671D01*
X146840480Y-85657850D01*
X146827868Y-85678893D01*
X146813253Y-85698599D01*
X146796777Y-85716777D01*
X146778599Y-85733253D01*
X146758893Y-85747868D01*
X146737850Y-85760480D01*
X146715671Y-85770970D01*
X146692572Y-85779235D01*
X146668773Y-85785196D01*
X146644505Y-85788796D01*
X146620001Y-85790000D01*
X145969999Y-85790000D01*
X145945495Y-85788796D01*
X145921227Y-85785196D01*
X145897428Y-85779235D01*
X145874329Y-85770970D01*
X145852150Y-85760480D01*
X145831107Y-85747868D01*
X145811401Y-85733253D01*
X145793223Y-85716777D01*
X145776747Y-85698599D01*
X145762132Y-85678893D01*
X145749520Y-85657850D01*
X145739030Y-85635671D01*
X145730765Y-85612572D01*
X145724804Y-85588773D01*
X145721204Y-85564505D01*
X145720000Y-85540001D01*
X145720000Y-84639999D01*
X145721204Y-84615495D01*
X145724804Y-84591227D01*
X145730765Y-84567428D01*
X145739030Y-84544329D01*
X145749520Y-84522150D01*
X145762132Y-84501107D01*
X145776747Y-84481401D01*
X145793223Y-84463223D01*
X145811401Y-84446747D01*
X145831107Y-84432132D01*
X145852150Y-84419520D01*
X145874329Y-84409030D01*
X145897428Y-84400765D01*
X145921227Y-84394804D01*
X145945495Y-84391204D01*
X145969999Y-84390000D01*
X146620001Y-84390000D01*
X146644505Y-84391204D01*
X146644505Y-84391204D01*
G37*
D11*
G04 #@! TD*
G04 #@! TO.P,C7,2*
G04 #@! TO.N,GND*
X146295000Y-85090000D03*
D10*
G04 #@! TO.N,Net-(C2-Pad1)*
G04 #@! TO.C,C7*
G36*
X148694505Y-84391204D02*
X148718773Y-84394804D01*
X148742572Y-84400765D01*
X148765671Y-84409030D01*
X148787850Y-84419520D01*
X148808893Y-84432132D01*
X148828599Y-84446747D01*
X148846777Y-84463223D01*
X148863253Y-84481401D01*
X148877868Y-84501107D01*
X148890480Y-84522150D01*
X148900970Y-84544329D01*
X148909235Y-84567428D01*
X148915196Y-84591227D01*
X148918796Y-84615495D01*
X148920000Y-84639999D01*
X148920000Y-85540001D01*
X148918796Y-85564505D01*
X148915196Y-85588773D01*
X148909235Y-85612572D01*
X148900970Y-85635671D01*
X148890480Y-85657850D01*
X148877868Y-85678893D01*
X148863253Y-85698599D01*
X148846777Y-85716777D01*
X148828599Y-85733253D01*
X148808893Y-85747868D01*
X148787850Y-85760480D01*
X148765671Y-85770970D01*
X148742572Y-85779235D01*
X148718773Y-85785196D01*
X148694505Y-85788796D01*
X148670001Y-85790000D01*
X148019999Y-85790000D01*
X147995495Y-85788796D01*
X147971227Y-85785196D01*
X147947428Y-85779235D01*
X147924329Y-85770970D01*
X147902150Y-85760480D01*
X147881107Y-85747868D01*
X147861401Y-85733253D01*
X147843223Y-85716777D01*
X147826747Y-85698599D01*
X147812132Y-85678893D01*
X147799520Y-85657850D01*
X147789030Y-85635671D01*
X147780765Y-85612572D01*
X147774804Y-85588773D01*
X147771204Y-85564505D01*
X147770000Y-85540001D01*
X147770000Y-84639999D01*
X147771204Y-84615495D01*
X147774804Y-84591227D01*
X147780765Y-84567428D01*
X147789030Y-84544329D01*
X147799520Y-84522150D01*
X147812132Y-84501107D01*
X147826747Y-84481401D01*
X147843223Y-84463223D01*
X147861401Y-84446747D01*
X147881107Y-84432132D01*
X147902150Y-84419520D01*
X147924329Y-84409030D01*
X147947428Y-84400765D01*
X147971227Y-84394804D01*
X147995495Y-84391204D01*
X148019999Y-84390000D01*
X148670001Y-84390000D01*
X148694505Y-84391204D01*
X148694505Y-84391204D01*
G37*
D11*
G04 #@! TD*
G04 #@! TO.P,C7,1*
G04 #@! TO.N,Net-(C2-Pad1)*
X148345000Y-85090000D03*
D10*
G04 #@! TO.N,Net-(C8-Pad1)*
G04 #@! TO.C,C8*
G36*
X162399505Y-81586204D02*
X162423773Y-81589804D01*
X162447572Y-81595765D01*
X162470671Y-81604030D01*
X162492850Y-81614520D01*
X162513893Y-81627132D01*
X162533599Y-81641747D01*
X162551777Y-81658223D01*
X162568253Y-81676401D01*
X162582868Y-81696107D01*
X162595480Y-81717150D01*
X162605970Y-81739329D01*
X162614235Y-81762428D01*
X162620196Y-81786227D01*
X162623796Y-81810495D01*
X162625000Y-81834999D01*
X162625000Y-82485001D01*
X162623796Y-82509505D01*
X162620196Y-82533773D01*
X162614235Y-82557572D01*
X162605970Y-82580671D01*
X162595480Y-82602850D01*
X162582868Y-82623893D01*
X162568253Y-82643599D01*
X162551777Y-82661777D01*
X162533599Y-82678253D01*
X162513893Y-82692868D01*
X162492850Y-82705480D01*
X162470671Y-82715970D01*
X162447572Y-82724235D01*
X162423773Y-82730196D01*
X162399505Y-82733796D01*
X162375001Y-82735000D01*
X161474999Y-82735000D01*
X161450495Y-82733796D01*
X161426227Y-82730196D01*
X161402428Y-82724235D01*
X161379329Y-82715970D01*
X161357150Y-82705480D01*
X161336107Y-82692868D01*
X161316401Y-82678253D01*
X161298223Y-82661777D01*
X161281747Y-82643599D01*
X161267132Y-82623893D01*
X161254520Y-82602850D01*
X161244030Y-82580671D01*
X161235765Y-82557572D01*
X161229804Y-82533773D01*
X161226204Y-82509505D01*
X161225000Y-82485001D01*
X161225000Y-81834999D01*
X161226204Y-81810495D01*
X161229804Y-81786227D01*
X161235765Y-81762428D01*
X161244030Y-81739329D01*
X161254520Y-81717150D01*
X161267132Y-81696107D01*
X161281747Y-81676401D01*
X161298223Y-81658223D01*
X161316401Y-81641747D01*
X161336107Y-81627132D01*
X161357150Y-81614520D01*
X161379329Y-81604030D01*
X161402428Y-81595765D01*
X161426227Y-81589804D01*
X161450495Y-81586204D01*
X161474999Y-81585000D01*
X162375001Y-81585000D01*
X162399505Y-81586204D01*
X162399505Y-81586204D01*
G37*
D11*
G04 #@! TD*
G04 #@! TO.P,C8,1*
G04 #@! TO.N,Net-(C8-Pad1)*
X161925000Y-82160000D03*
D10*
G04 #@! TO.N,Net-(C8-Pad2)*
G04 #@! TO.C,C8*
G36*
X162399505Y-83636204D02*
X162423773Y-83639804D01*
X162447572Y-83645765D01*
X162470671Y-83654030D01*
X162492850Y-83664520D01*
X162513893Y-83677132D01*
X162533599Y-83691747D01*
X162551777Y-83708223D01*
X162568253Y-83726401D01*
X162582868Y-83746107D01*
X162595480Y-83767150D01*
X162605970Y-83789329D01*
X162614235Y-83812428D01*
X162620196Y-83836227D01*
X162623796Y-83860495D01*
X162625000Y-83884999D01*
X162625000Y-84535001D01*
X162623796Y-84559505D01*
X162620196Y-84583773D01*
X162614235Y-84607572D01*
X162605970Y-84630671D01*
X162595480Y-84652850D01*
X162582868Y-84673893D01*
X162568253Y-84693599D01*
X162551777Y-84711777D01*
X162533599Y-84728253D01*
X162513893Y-84742868D01*
X162492850Y-84755480D01*
X162470671Y-84765970D01*
X162447572Y-84774235D01*
X162423773Y-84780196D01*
X162399505Y-84783796D01*
X162375001Y-84785000D01*
X161474999Y-84785000D01*
X161450495Y-84783796D01*
X161426227Y-84780196D01*
X161402428Y-84774235D01*
X161379329Y-84765970D01*
X161357150Y-84755480D01*
X161336107Y-84742868D01*
X161316401Y-84728253D01*
X161298223Y-84711777D01*
X161281747Y-84693599D01*
X161267132Y-84673893D01*
X161254520Y-84652850D01*
X161244030Y-84630671D01*
X161235765Y-84607572D01*
X161229804Y-84583773D01*
X161226204Y-84559505D01*
X161225000Y-84535001D01*
X161225000Y-83884999D01*
X161226204Y-83860495D01*
X161229804Y-83836227D01*
X161235765Y-83812428D01*
X161244030Y-83789329D01*
X161254520Y-83767150D01*
X161267132Y-83746107D01*
X161281747Y-83726401D01*
X161298223Y-83708223D01*
X161316401Y-83691747D01*
X161336107Y-83677132D01*
X161357150Y-83664520D01*
X161379329Y-83654030D01*
X161402428Y-83645765D01*
X161426227Y-83639804D01*
X161450495Y-83636204D01*
X161474999Y-83635000D01*
X162375001Y-83635000D01*
X162399505Y-83636204D01*
X162399505Y-83636204D01*
G37*
D11*
G04 #@! TD*
G04 #@! TO.P,C8,2*
G04 #@! TO.N,Net-(C8-Pad2)*
X161925000Y-84210000D03*
D10*
G04 #@! TO.N,GND*
G04 #@! TO.C,C9*
G36*
X150454505Y-80200204D02*
X150478773Y-80203804D01*
X150502572Y-80209765D01*
X150525671Y-80218030D01*
X150547850Y-80228520D01*
X150568893Y-80241132D01*
X150588599Y-80255747D01*
X150606777Y-80272223D01*
X150623253Y-80290401D01*
X150637868Y-80310107D01*
X150650480Y-80331150D01*
X150660970Y-80353329D01*
X150669235Y-80376428D01*
X150675196Y-80400227D01*
X150678796Y-80424495D01*
X150680000Y-80448999D01*
X150680000Y-81349001D01*
X150678796Y-81373505D01*
X150675196Y-81397773D01*
X150669235Y-81421572D01*
X150660970Y-81444671D01*
X150650480Y-81466850D01*
X150637868Y-81487893D01*
X150623253Y-81507599D01*
X150606777Y-81525777D01*
X150588599Y-81542253D01*
X150568893Y-81556868D01*
X150547850Y-81569480D01*
X150525671Y-81579970D01*
X150502572Y-81588235D01*
X150478773Y-81594196D01*
X150454505Y-81597796D01*
X150430001Y-81599000D01*
X149779999Y-81599000D01*
X149755495Y-81597796D01*
X149731227Y-81594196D01*
X149707428Y-81588235D01*
X149684329Y-81579970D01*
X149662150Y-81569480D01*
X149641107Y-81556868D01*
X149621401Y-81542253D01*
X149603223Y-81525777D01*
X149586747Y-81507599D01*
X149572132Y-81487893D01*
X149559520Y-81466850D01*
X149549030Y-81444671D01*
X149540765Y-81421572D01*
X149534804Y-81397773D01*
X149531204Y-81373505D01*
X149530000Y-81349001D01*
X149530000Y-80448999D01*
X149531204Y-80424495D01*
X149534804Y-80400227D01*
X149540765Y-80376428D01*
X149549030Y-80353329D01*
X149559520Y-80331150D01*
X149572132Y-80310107D01*
X149586747Y-80290401D01*
X149603223Y-80272223D01*
X149621401Y-80255747D01*
X149641107Y-80241132D01*
X149662150Y-80228520D01*
X149684329Y-80218030D01*
X149707428Y-80209765D01*
X149731227Y-80203804D01*
X149755495Y-80200204D01*
X149779999Y-80199000D01*
X150430001Y-80199000D01*
X150454505Y-80200204D01*
X150454505Y-80200204D01*
G37*
D11*
G04 #@! TD*
G04 #@! TO.P,C9,2*
G04 #@! TO.N,GND*
X150105000Y-80899000D03*
D10*
G04 #@! TO.N,Net-(C9-Pad1)*
G04 #@! TO.C,C9*
G36*
X152504505Y-80200204D02*
X152528773Y-80203804D01*
X152552572Y-80209765D01*
X152575671Y-80218030D01*
X152597850Y-80228520D01*
X152618893Y-80241132D01*
X152638599Y-80255747D01*
X152656777Y-80272223D01*
X152673253Y-80290401D01*
X152687868Y-80310107D01*
X152700480Y-80331150D01*
X152710970Y-80353329D01*
X152719235Y-80376428D01*
X152725196Y-80400227D01*
X152728796Y-80424495D01*
X152730000Y-80448999D01*
X152730000Y-81349001D01*
X152728796Y-81373505D01*
X152725196Y-81397773D01*
X152719235Y-81421572D01*
X152710970Y-81444671D01*
X152700480Y-81466850D01*
X152687868Y-81487893D01*
X152673253Y-81507599D01*
X152656777Y-81525777D01*
X152638599Y-81542253D01*
X152618893Y-81556868D01*
X152597850Y-81569480D01*
X152575671Y-81579970D01*
X152552572Y-81588235D01*
X152528773Y-81594196D01*
X152504505Y-81597796D01*
X152480001Y-81599000D01*
X151829999Y-81599000D01*
X151805495Y-81597796D01*
X151781227Y-81594196D01*
X151757428Y-81588235D01*
X151734329Y-81579970D01*
X151712150Y-81569480D01*
X151691107Y-81556868D01*
X151671401Y-81542253D01*
X151653223Y-81525777D01*
X151636747Y-81507599D01*
X151622132Y-81487893D01*
X151609520Y-81466850D01*
X151599030Y-81444671D01*
X151590765Y-81421572D01*
X151584804Y-81397773D01*
X151581204Y-81373505D01*
X151580000Y-81349001D01*
X151580000Y-80448999D01*
X151581204Y-80424495D01*
X151584804Y-80400227D01*
X151590765Y-80376428D01*
X151599030Y-80353329D01*
X151609520Y-80331150D01*
X151622132Y-80310107D01*
X151636747Y-80290401D01*
X151653223Y-80272223D01*
X151671401Y-80255747D01*
X151691107Y-80241132D01*
X151712150Y-80228520D01*
X151734329Y-80218030D01*
X151757428Y-80209765D01*
X151781227Y-80203804D01*
X151805495Y-80200204D01*
X151829999Y-80199000D01*
X152480001Y-80199000D01*
X152504505Y-80200204D01*
X152504505Y-80200204D01*
G37*
D11*
G04 #@! TD*
G04 #@! TO.P,C9,1*
G04 #@! TO.N,Net-(C9-Pad1)*
X152155000Y-80899000D03*
D10*
G04 #@! TO.N,Net-(C1-Pad1)*
G04 #@! TO.C,J1*
G36*
X121778505Y-81427204D02*
X121802773Y-81430804D01*
X121826572Y-81436765D01*
X121849671Y-81445030D01*
X121871850Y-81455520D01*
X121892893Y-81468132D01*
X121912599Y-81482747D01*
X121930777Y-81499223D01*
X121947253Y-81517401D01*
X121961868Y-81537107D01*
X121974480Y-81558150D01*
X121984970Y-81580329D01*
X121993235Y-81603428D01*
X121999196Y-81627227D01*
X122002796Y-81651495D01*
X122004000Y-81675999D01*
X122004000Y-82916001D01*
X122002796Y-82940505D01*
X121999196Y-82964773D01*
X121993235Y-82988572D01*
X121984970Y-83011671D01*
X121974480Y-83033850D01*
X121961868Y-83054893D01*
X121947253Y-83074599D01*
X121930777Y-83092777D01*
X121912599Y-83109253D01*
X121892893Y-83123868D01*
X121871850Y-83136480D01*
X121849671Y-83146970D01*
X121826572Y-83155235D01*
X121802773Y-83161196D01*
X121778505Y-83164796D01*
X121754001Y-83166000D01*
X120053999Y-83166000D01*
X120029495Y-83164796D01*
X120005227Y-83161196D01*
X119981428Y-83155235D01*
X119958329Y-83146970D01*
X119936150Y-83136480D01*
X119915107Y-83123868D01*
X119895401Y-83109253D01*
X119877223Y-83092777D01*
X119860747Y-83074599D01*
X119846132Y-83054893D01*
X119833520Y-83033850D01*
X119823030Y-83011671D01*
X119814765Y-82988572D01*
X119808804Y-82964773D01*
X119805204Y-82940505D01*
X119804000Y-82916001D01*
X119804000Y-81675999D01*
X119805204Y-81651495D01*
X119808804Y-81627227D01*
X119814765Y-81603428D01*
X119823030Y-81580329D01*
X119833520Y-81558150D01*
X119846132Y-81537107D01*
X119860747Y-81517401D01*
X119877223Y-81499223D01*
X119895401Y-81482747D01*
X119915107Y-81468132D01*
X119936150Y-81455520D01*
X119958329Y-81445030D01*
X119981428Y-81436765D01*
X120005227Y-81430804D01*
X120029495Y-81427204D01*
X120053999Y-81426000D01*
X121754001Y-81426000D01*
X121778505Y-81427204D01*
X121778505Y-81427204D01*
G37*
D14*
G04 #@! TD*
G04 #@! TO.P,J1,1*
G04 #@! TO.N,Net-(C1-Pad1)*
X120904000Y-82296000D03*
D15*
G04 #@! TO.P,J1,2*
G04 #@! TO.N,GND*
X120904000Y-84836000D03*
G04 #@! TD*
D16*
G04 #@! TO.P,J2,1*
G04 #@! TO.N,Net-(J2-Pad1)*
X132715000Y-78486000D03*
D17*
G04 #@! TO.P,J2,2*
G04 #@! TO.N,GND*
X135255000Y-81026000D03*
X135255000Y-75946000D03*
X130175000Y-75946000D03*
X130175000Y-81026000D03*
G04 #@! TD*
D10*
G04 #@! TO.N,Net-(L1-Pad1)*
G04 #@! TO.C,L1*
G36*
X158859504Y-75771204D02*
X158883773Y-75774804D01*
X158907571Y-75780765D01*
X158930671Y-75789030D01*
X158952849Y-75799520D01*
X158973893Y-75812133D01*
X158993598Y-75826747D01*
X159011777Y-75843223D01*
X159028253Y-75861402D01*
X159042867Y-75881107D01*
X159055480Y-75902151D01*
X159065970Y-75924329D01*
X159074235Y-75947429D01*
X159080196Y-75971227D01*
X159083796Y-75995496D01*
X159085000Y-76020000D01*
X159085000Y-78920000D01*
X159083796Y-78944504D01*
X159080196Y-78968773D01*
X159074235Y-78992571D01*
X159065970Y-79015671D01*
X159055480Y-79037849D01*
X159042867Y-79058893D01*
X159028253Y-79078598D01*
X159011777Y-79096777D01*
X158993598Y-79113253D01*
X158973893Y-79127867D01*
X158952849Y-79140480D01*
X158930671Y-79150970D01*
X158907571Y-79159235D01*
X158883773Y-79165196D01*
X158859504Y-79168796D01*
X158835000Y-79170000D01*
X158035000Y-79170000D01*
X158010496Y-79168796D01*
X157986227Y-79165196D01*
X157962429Y-79159235D01*
X157939329Y-79150970D01*
X157917151Y-79140480D01*
X157896107Y-79127867D01*
X157876402Y-79113253D01*
X157858223Y-79096777D01*
X157841747Y-79078598D01*
X157827133Y-79058893D01*
X157814520Y-79037849D01*
X157804030Y-79015671D01*
X157795765Y-78992571D01*
X157789804Y-78968773D01*
X157786204Y-78944504D01*
X157785000Y-78920000D01*
X157785000Y-76020000D01*
X157786204Y-75995496D01*
X157789804Y-75971227D01*
X157795765Y-75947429D01*
X157804030Y-75924329D01*
X157814520Y-75902151D01*
X157827133Y-75881107D01*
X157841747Y-75861402D01*
X157858223Y-75843223D01*
X157876402Y-75826747D01*
X157896107Y-75812133D01*
X157917151Y-75799520D01*
X157939329Y-75789030D01*
X157962429Y-75780765D01*
X157986227Y-75774804D01*
X158010496Y-75771204D01*
X158035000Y-75770000D01*
X158835000Y-75770000D01*
X158859504Y-75771204D01*
X158859504Y-75771204D01*
G37*
D18*
G04 #@! TD*
G04 #@! TO.P,L1,1*
G04 #@! TO.N,Net-(L1-Pad1)*
X158435000Y-77470000D03*
D10*
G04 #@! TO.N,Net-(C9-Pad1)*
G04 #@! TO.C,L1*
G36*
X154409504Y-75771204D02*
X154433773Y-75774804D01*
X154457571Y-75780765D01*
X154480671Y-75789030D01*
X154502849Y-75799520D01*
X154523893Y-75812133D01*
X154543598Y-75826747D01*
X154561777Y-75843223D01*
X154578253Y-75861402D01*
X154592867Y-75881107D01*
X154605480Y-75902151D01*
X154615970Y-75924329D01*
X154624235Y-75947429D01*
X154630196Y-75971227D01*
X154633796Y-75995496D01*
X154635000Y-76020000D01*
X154635000Y-78920000D01*
X154633796Y-78944504D01*
X154630196Y-78968773D01*
X154624235Y-78992571D01*
X154615970Y-79015671D01*
X154605480Y-79037849D01*
X154592867Y-79058893D01*
X154578253Y-79078598D01*
X154561777Y-79096777D01*
X154543598Y-79113253D01*
X154523893Y-79127867D01*
X154502849Y-79140480D01*
X154480671Y-79150970D01*
X154457571Y-79159235D01*
X154433773Y-79165196D01*
X154409504Y-79168796D01*
X154385000Y-79170000D01*
X153585000Y-79170000D01*
X153560496Y-79168796D01*
X153536227Y-79165196D01*
X153512429Y-79159235D01*
X153489329Y-79150970D01*
X153467151Y-79140480D01*
X153446107Y-79127867D01*
X153426402Y-79113253D01*
X153408223Y-79096777D01*
X153391747Y-79078598D01*
X153377133Y-79058893D01*
X153364520Y-79037849D01*
X153354030Y-79015671D01*
X153345765Y-78992571D01*
X153339804Y-78968773D01*
X153336204Y-78944504D01*
X153335000Y-78920000D01*
X153335000Y-76020000D01*
X153336204Y-75995496D01*
X153339804Y-75971227D01*
X153345765Y-75947429D01*
X153354030Y-75924329D01*
X153364520Y-75902151D01*
X153377133Y-75881107D01*
X153391747Y-75861402D01*
X153408223Y-75843223D01*
X153426402Y-75826747D01*
X153446107Y-75812133D01*
X153467151Y-75799520D01*
X153489329Y-75789030D01*
X153512429Y-75780765D01*
X153536227Y-75774804D01*
X153560496Y-75771204D01*
X153585000Y-75770000D01*
X154385000Y-75770000D01*
X154409504Y-75771204D01*
X154409504Y-75771204D01*
G37*
D18*
G04 #@! TD*
G04 #@! TO.P,L1,2*
G04 #@! TO.N,Net-(C9-Pad1)*
X153985000Y-77470000D03*
D10*
G04 #@! TO.N,Net-(C10-Pad1)*
G04 #@! TO.C,L2*
G36*
X146789504Y-75771204D02*
X146813773Y-75774804D01*
X146837571Y-75780765D01*
X146860671Y-75789030D01*
X146882849Y-75799520D01*
X146903893Y-75812133D01*
X146923598Y-75826747D01*
X146941777Y-75843223D01*
X146958253Y-75861402D01*
X146972867Y-75881107D01*
X146985480Y-75902151D01*
X146995970Y-75924329D01*
X147004235Y-75947429D01*
X147010196Y-75971227D01*
X147013796Y-75995496D01*
X147015000Y-76020000D01*
X147015000Y-78920000D01*
X147013796Y-78944504D01*
X147010196Y-78968773D01*
X147004235Y-78992571D01*
X146995970Y-79015671D01*
X146985480Y-79037849D01*
X146972867Y-79058893D01*
X146958253Y-79078598D01*
X146941777Y-79096777D01*
X146923598Y-79113253D01*
X146903893Y-79127867D01*
X146882849Y-79140480D01*
X146860671Y-79150970D01*
X146837571Y-79159235D01*
X146813773Y-79165196D01*
X146789504Y-79168796D01*
X146765000Y-79170000D01*
X145965000Y-79170000D01*
X145940496Y-79168796D01*
X145916227Y-79165196D01*
X145892429Y-79159235D01*
X145869329Y-79150970D01*
X145847151Y-79140480D01*
X145826107Y-79127867D01*
X145806402Y-79113253D01*
X145788223Y-79096777D01*
X145771747Y-79078598D01*
X145757133Y-79058893D01*
X145744520Y-79037849D01*
X145734030Y-79015671D01*
X145725765Y-78992571D01*
X145719804Y-78968773D01*
X145716204Y-78944504D01*
X145715000Y-78920000D01*
X145715000Y-76020000D01*
X145716204Y-75995496D01*
X145719804Y-75971227D01*
X145725765Y-75947429D01*
X145734030Y-75924329D01*
X145744520Y-75902151D01*
X145757133Y-75881107D01*
X145771747Y-75861402D01*
X145788223Y-75843223D01*
X145806402Y-75826747D01*
X145826107Y-75812133D01*
X145847151Y-75799520D01*
X145869329Y-75789030D01*
X145892429Y-75780765D01*
X145916227Y-75774804D01*
X145940496Y-75771204D01*
X145965000Y-75770000D01*
X146765000Y-75770000D01*
X146789504Y-75771204D01*
X146789504Y-75771204D01*
G37*
D18*
G04 #@! TD*
G04 #@! TO.P,L2,2*
G04 #@! TO.N,Net-(C10-Pad1)*
X146365000Y-77470000D03*
D10*
G04 #@! TO.N,Net-(C9-Pad1)*
G04 #@! TO.C,L2*
G36*
X151239504Y-75771204D02*
X151263773Y-75774804D01*
X151287571Y-75780765D01*
X151310671Y-75789030D01*
X151332849Y-75799520D01*
X151353893Y-75812133D01*
X151373598Y-75826747D01*
X151391777Y-75843223D01*
X151408253Y-75861402D01*
X151422867Y-75881107D01*
X151435480Y-75902151D01*
X151445970Y-75924329D01*
X151454235Y-75947429D01*
X151460196Y-75971227D01*
X151463796Y-75995496D01*
X151465000Y-76020000D01*
X151465000Y-78920000D01*
X151463796Y-78944504D01*
X151460196Y-78968773D01*
X151454235Y-78992571D01*
X151445970Y-79015671D01*
X151435480Y-79037849D01*
X151422867Y-79058893D01*
X151408253Y-79078598D01*
X151391777Y-79096777D01*
X151373598Y-79113253D01*
X151353893Y-79127867D01*
X151332849Y-79140480D01*
X151310671Y-79150970D01*
X151287571Y-79159235D01*
X151263773Y-79165196D01*
X151239504Y-79168796D01*
X151215000Y-79170000D01*
X150415000Y-79170000D01*
X150390496Y-79168796D01*
X150366227Y-79165196D01*
X150342429Y-79159235D01*
X150319329Y-79150970D01*
X150297151Y-79140480D01*
X150276107Y-79127867D01*
X150256402Y-79113253D01*
X150238223Y-79096777D01*
X150221747Y-79078598D01*
X150207133Y-79058893D01*
X150194520Y-79037849D01*
X150184030Y-79015671D01*
X150175765Y-78992571D01*
X150169804Y-78968773D01*
X150166204Y-78944504D01*
X150165000Y-78920000D01*
X150165000Y-76020000D01*
X150166204Y-75995496D01*
X150169804Y-75971227D01*
X150175765Y-75947429D01*
X150184030Y-75924329D01*
X150194520Y-75902151D01*
X150207133Y-75881107D01*
X150221747Y-75861402D01*
X150238223Y-75843223D01*
X150256402Y-75826747D01*
X150276107Y-75812133D01*
X150297151Y-75799520D01*
X150319329Y-75789030D01*
X150342429Y-75780765D01*
X150366227Y-75774804D01*
X150390496Y-75771204D01*
X150415000Y-75770000D01*
X151215000Y-75770000D01*
X151239504Y-75771204D01*
X151239504Y-75771204D01*
G37*
D18*
G04 #@! TD*
G04 #@! TO.P,L2,1*
G04 #@! TO.N,Net-(C9-Pad1)*
X150815000Y-77470000D03*
D10*
G04 #@! TO.N,Net-(C10-Pad1)*
G04 #@! TO.C,L3*
G36*
X143619504Y-75771204D02*
X143643773Y-75774804D01*
X143667571Y-75780765D01*
X143690671Y-75789030D01*
X143712849Y-75799520D01*
X143733893Y-75812133D01*
X143753598Y-75826747D01*
X143771777Y-75843223D01*
X143788253Y-75861402D01*
X143802867Y-75881107D01*
X143815480Y-75902151D01*
X143825970Y-75924329D01*
X143834235Y-75947429D01*
X143840196Y-75971227D01*
X143843796Y-75995496D01*
X143845000Y-76020000D01*
X143845000Y-78920000D01*
X143843796Y-78944504D01*
X143840196Y-78968773D01*
X143834235Y-78992571D01*
X143825970Y-79015671D01*
X143815480Y-79037849D01*
X143802867Y-79058893D01*
X143788253Y-79078598D01*
X143771777Y-79096777D01*
X143753598Y-79113253D01*
X143733893Y-79127867D01*
X143712849Y-79140480D01*
X143690671Y-79150970D01*
X143667571Y-79159235D01*
X143643773Y-79165196D01*
X143619504Y-79168796D01*
X143595000Y-79170000D01*
X142795000Y-79170000D01*
X142770496Y-79168796D01*
X142746227Y-79165196D01*
X142722429Y-79159235D01*
X142699329Y-79150970D01*
X142677151Y-79140480D01*
X142656107Y-79127867D01*
X142636402Y-79113253D01*
X142618223Y-79096777D01*
X142601747Y-79078598D01*
X142587133Y-79058893D01*
X142574520Y-79037849D01*
X142564030Y-79015671D01*
X142555765Y-78992571D01*
X142549804Y-78968773D01*
X142546204Y-78944504D01*
X142545000Y-78920000D01*
X142545000Y-76020000D01*
X142546204Y-75995496D01*
X142549804Y-75971227D01*
X142555765Y-75947429D01*
X142564030Y-75924329D01*
X142574520Y-75902151D01*
X142587133Y-75881107D01*
X142601747Y-75861402D01*
X142618223Y-75843223D01*
X142636402Y-75826747D01*
X142656107Y-75812133D01*
X142677151Y-75799520D01*
X142699329Y-75789030D01*
X142722429Y-75780765D01*
X142746227Y-75774804D01*
X142770496Y-75771204D01*
X142795000Y-75770000D01*
X143595000Y-75770000D01*
X143619504Y-75771204D01*
X143619504Y-75771204D01*
G37*
D18*
G04 #@! TD*
G04 #@! TO.P,L3,1*
G04 #@! TO.N,Net-(C10-Pad1)*
X143195000Y-77470000D03*
D10*
G04 #@! TO.N,Net-(J2-Pad1)*
G04 #@! TO.C,L3*
G36*
X139169504Y-75771204D02*
X139193773Y-75774804D01*
X139217571Y-75780765D01*
X139240671Y-75789030D01*
X139262849Y-75799520D01*
X139283893Y-75812133D01*
X139303598Y-75826747D01*
X139321777Y-75843223D01*
X139338253Y-75861402D01*
X139352867Y-75881107D01*
X139365480Y-75902151D01*
X139375970Y-75924329D01*
X139384235Y-75947429D01*
X139390196Y-75971227D01*
X139393796Y-75995496D01*
X139395000Y-76020000D01*
X139395000Y-78920000D01*
X139393796Y-78944504D01*
X139390196Y-78968773D01*
X139384235Y-78992571D01*
X139375970Y-79015671D01*
X139365480Y-79037849D01*
X139352867Y-79058893D01*
X139338253Y-79078598D01*
X139321777Y-79096777D01*
X139303598Y-79113253D01*
X139283893Y-79127867D01*
X139262849Y-79140480D01*
X139240671Y-79150970D01*
X139217571Y-79159235D01*
X139193773Y-79165196D01*
X139169504Y-79168796D01*
X139145000Y-79170000D01*
X138345000Y-79170000D01*
X138320496Y-79168796D01*
X138296227Y-79165196D01*
X138272429Y-79159235D01*
X138249329Y-79150970D01*
X138227151Y-79140480D01*
X138206107Y-79127867D01*
X138186402Y-79113253D01*
X138168223Y-79096777D01*
X138151747Y-79078598D01*
X138137133Y-79058893D01*
X138124520Y-79037849D01*
X138114030Y-79015671D01*
X138105765Y-78992571D01*
X138099804Y-78968773D01*
X138096204Y-78944504D01*
X138095000Y-78920000D01*
X138095000Y-76020000D01*
X138096204Y-75995496D01*
X138099804Y-75971227D01*
X138105765Y-75947429D01*
X138114030Y-75924329D01*
X138124520Y-75902151D01*
X138137133Y-75881107D01*
X138151747Y-75861402D01*
X138168223Y-75843223D01*
X138186402Y-75826747D01*
X138206107Y-75812133D01*
X138227151Y-75799520D01*
X138249329Y-75789030D01*
X138272429Y-75780765D01*
X138296227Y-75774804D01*
X138320496Y-75771204D01*
X138345000Y-75770000D01*
X139145000Y-75770000D01*
X139169504Y-75771204D01*
X139169504Y-75771204D01*
G37*
D18*
G04 #@! TD*
G04 #@! TO.P,L3,2*
G04 #@! TO.N,Net-(J2-Pad1)*
X138745000Y-77470000D03*
D19*
G04 #@! TO.P,Q1,1*
G04 #@! TO.N,Net-(C6-Pad1)*
X155940000Y-87010000D03*
G04 #@! TO.P,Q1,2*
G04 #@! TO.N,Net-(C8-Pad2)*
X155940000Y-85710000D03*
G04 #@! TO.P,Q1,3*
G04 #@! TO.N,Net-(C2-Pad1)*
X153940000Y-86360000D03*
G04 #@! TD*
D10*
G04 #@! TO.N,Net-(C3-Pad1)*
G04 #@! TO.C,R1*
G36*
X157700505Y-95048204D02*
X157724773Y-95051804D01*
X157748572Y-95057765D01*
X157771671Y-95066030D01*
X157793850Y-95076520D01*
X157814893Y-95089132D01*
X157834599Y-95103747D01*
X157852777Y-95120223D01*
X157869253Y-95138401D01*
X157883868Y-95158107D01*
X157896480Y-95179150D01*
X157906970Y-95201329D01*
X157915235Y-95224428D01*
X157921196Y-95248227D01*
X157924796Y-95272495D01*
X157926000Y-95296999D01*
X157926000Y-95947001D01*
X157924796Y-95971505D01*
X157921196Y-95995773D01*
X157915235Y-96019572D01*
X157906970Y-96042671D01*
X157896480Y-96064850D01*
X157883868Y-96085893D01*
X157869253Y-96105599D01*
X157852777Y-96123777D01*
X157834599Y-96140253D01*
X157814893Y-96154868D01*
X157793850Y-96167480D01*
X157771671Y-96177970D01*
X157748572Y-96186235D01*
X157724773Y-96192196D01*
X157700505Y-96195796D01*
X157676001Y-96197000D01*
X156775999Y-96197000D01*
X156751495Y-96195796D01*
X156727227Y-96192196D01*
X156703428Y-96186235D01*
X156680329Y-96177970D01*
X156658150Y-96167480D01*
X156637107Y-96154868D01*
X156617401Y-96140253D01*
X156599223Y-96123777D01*
X156582747Y-96105599D01*
X156568132Y-96085893D01*
X156555520Y-96064850D01*
X156545030Y-96042671D01*
X156536765Y-96019572D01*
X156530804Y-95995773D01*
X156527204Y-95971505D01*
X156526000Y-95947001D01*
X156526000Y-95296999D01*
X156527204Y-95272495D01*
X156530804Y-95248227D01*
X156536765Y-95224428D01*
X156545030Y-95201329D01*
X156555520Y-95179150D01*
X156568132Y-95158107D01*
X156582747Y-95138401D01*
X156599223Y-95120223D01*
X156617401Y-95103747D01*
X156637107Y-95089132D01*
X156658150Y-95076520D01*
X156680329Y-95066030D01*
X156703428Y-95057765D01*
X156727227Y-95051804D01*
X156751495Y-95048204D01*
X156775999Y-95047000D01*
X157676001Y-95047000D01*
X157700505Y-95048204D01*
X157700505Y-95048204D01*
G37*
D11*
G04 #@! TD*
G04 #@! TO.P,R1,2*
G04 #@! TO.N,Net-(C3-Pad1)*
X157226000Y-95622000D03*
D10*
G04 #@! TO.N,Net-(Q2-Pad2)*
G04 #@! TO.C,R1*
G36*
X157700505Y-97098204D02*
X157724773Y-97101804D01*
X157748572Y-97107765D01*
X157771671Y-97116030D01*
X157793850Y-97126520D01*
X157814893Y-97139132D01*
X157834599Y-97153747D01*
X157852777Y-97170223D01*
X157869253Y-97188401D01*
X157883868Y-97208107D01*
X157896480Y-97229150D01*
X157906970Y-97251329D01*
X157915235Y-97274428D01*
X157921196Y-97298227D01*
X157924796Y-97322495D01*
X157926000Y-97346999D01*
X157926000Y-97997001D01*
X157924796Y-98021505D01*
X157921196Y-98045773D01*
X157915235Y-98069572D01*
X157906970Y-98092671D01*
X157896480Y-98114850D01*
X157883868Y-98135893D01*
X157869253Y-98155599D01*
X157852777Y-98173777D01*
X157834599Y-98190253D01*
X157814893Y-98204868D01*
X157793850Y-98217480D01*
X157771671Y-98227970D01*
X157748572Y-98236235D01*
X157724773Y-98242196D01*
X157700505Y-98245796D01*
X157676001Y-98247000D01*
X156775999Y-98247000D01*
X156751495Y-98245796D01*
X156727227Y-98242196D01*
X156703428Y-98236235D01*
X156680329Y-98227970D01*
X156658150Y-98217480D01*
X156637107Y-98204868D01*
X156617401Y-98190253D01*
X156599223Y-98173777D01*
X156582747Y-98155599D01*
X156568132Y-98135893D01*
X156555520Y-98114850D01*
X156545030Y-98092671D01*
X156536765Y-98069572D01*
X156530804Y-98045773D01*
X156527204Y-98021505D01*
X156526000Y-97997001D01*
X156526000Y-97346999D01*
X156527204Y-97322495D01*
X156530804Y-97298227D01*
X156536765Y-97274428D01*
X156545030Y-97251329D01*
X156555520Y-97229150D01*
X156568132Y-97208107D01*
X156582747Y-97188401D01*
X156599223Y-97170223D01*
X156617401Y-97153747D01*
X156637107Y-97139132D01*
X156658150Y-97126520D01*
X156680329Y-97116030D01*
X156703428Y-97107765D01*
X156727227Y-97101804D01*
X156751495Y-97098204D01*
X156775999Y-97097000D01*
X157676001Y-97097000D01*
X157700505Y-97098204D01*
X157700505Y-97098204D01*
G37*
D11*
G04 #@! TD*
G04 #@! TO.P,R1,1*
G04 #@! TO.N,Net-(Q2-Pad2)*
X157226000Y-97672000D03*
D10*
G04 #@! TO.N,Net-(C2-Pad1)*
G04 #@! TO.C,R2*
G36*
X151350505Y-84507204D02*
X151374773Y-84510804D01*
X151398572Y-84516765D01*
X151421671Y-84525030D01*
X151443850Y-84535520D01*
X151464893Y-84548132D01*
X151484599Y-84562747D01*
X151502777Y-84579223D01*
X151519253Y-84597401D01*
X151533868Y-84617107D01*
X151546480Y-84638150D01*
X151556970Y-84660329D01*
X151565235Y-84683428D01*
X151571196Y-84707227D01*
X151574796Y-84731495D01*
X151576000Y-84755999D01*
X151576000Y-85406001D01*
X151574796Y-85430505D01*
X151571196Y-85454773D01*
X151565235Y-85478572D01*
X151556970Y-85501671D01*
X151546480Y-85523850D01*
X151533868Y-85544893D01*
X151519253Y-85564599D01*
X151502777Y-85582777D01*
X151484599Y-85599253D01*
X151464893Y-85613868D01*
X151443850Y-85626480D01*
X151421671Y-85636970D01*
X151398572Y-85645235D01*
X151374773Y-85651196D01*
X151350505Y-85654796D01*
X151326001Y-85656000D01*
X150425999Y-85656000D01*
X150401495Y-85654796D01*
X150377227Y-85651196D01*
X150353428Y-85645235D01*
X150330329Y-85636970D01*
X150308150Y-85626480D01*
X150287107Y-85613868D01*
X150267401Y-85599253D01*
X150249223Y-85582777D01*
X150232747Y-85564599D01*
X150218132Y-85544893D01*
X150205520Y-85523850D01*
X150195030Y-85501671D01*
X150186765Y-85478572D01*
X150180804Y-85454773D01*
X150177204Y-85430505D01*
X150176000Y-85406001D01*
X150176000Y-84755999D01*
X150177204Y-84731495D01*
X150180804Y-84707227D01*
X150186765Y-84683428D01*
X150195030Y-84660329D01*
X150205520Y-84638150D01*
X150218132Y-84617107D01*
X150232747Y-84597401D01*
X150249223Y-84579223D01*
X150267401Y-84562747D01*
X150287107Y-84548132D01*
X150308150Y-84535520D01*
X150330329Y-84525030D01*
X150353428Y-84516765D01*
X150377227Y-84510804D01*
X150401495Y-84507204D01*
X150425999Y-84506000D01*
X151326001Y-84506000D01*
X151350505Y-84507204D01*
X151350505Y-84507204D01*
G37*
D11*
G04 #@! TD*
G04 #@! TO.P,R2,1*
G04 #@! TO.N,Net-(C2-Pad1)*
X150876000Y-85081000D03*
D10*
G04 #@! TO.N,Net-(C6-Pad1)*
G04 #@! TO.C,R2*
G36*
X151350505Y-86557204D02*
X151374773Y-86560804D01*
X151398572Y-86566765D01*
X151421671Y-86575030D01*
X151443850Y-86585520D01*
X151464893Y-86598132D01*
X151484599Y-86612747D01*
X151502777Y-86629223D01*
X151519253Y-86647401D01*
X151533868Y-86667107D01*
X151546480Y-86688150D01*
X151556970Y-86710329D01*
X151565235Y-86733428D01*
X151571196Y-86757227D01*
X151574796Y-86781495D01*
X151576000Y-86805999D01*
X151576000Y-87456001D01*
X151574796Y-87480505D01*
X151571196Y-87504773D01*
X151565235Y-87528572D01*
X151556970Y-87551671D01*
X151546480Y-87573850D01*
X151533868Y-87594893D01*
X151519253Y-87614599D01*
X151502777Y-87632777D01*
X151484599Y-87649253D01*
X151464893Y-87663868D01*
X151443850Y-87676480D01*
X151421671Y-87686970D01*
X151398572Y-87695235D01*
X151374773Y-87701196D01*
X151350505Y-87704796D01*
X151326001Y-87706000D01*
X150425999Y-87706000D01*
X150401495Y-87704796D01*
X150377227Y-87701196D01*
X150353428Y-87695235D01*
X150330329Y-87686970D01*
X150308150Y-87676480D01*
X150287107Y-87663868D01*
X150267401Y-87649253D01*
X150249223Y-87632777D01*
X150232747Y-87614599D01*
X150218132Y-87594893D01*
X150205520Y-87573850D01*
X150195030Y-87551671D01*
X150186765Y-87528572D01*
X150180804Y-87504773D01*
X150177204Y-87480505D01*
X150176000Y-87456001D01*
X150176000Y-86805999D01*
X150177204Y-86781495D01*
X150180804Y-86757227D01*
X150186765Y-86733428D01*
X150195030Y-86710329D01*
X150205520Y-86688150D01*
X150218132Y-86667107D01*
X150232747Y-86647401D01*
X150249223Y-86629223D01*
X150267401Y-86612747D01*
X150287107Y-86598132D01*
X150308150Y-86585520D01*
X150330329Y-86575030D01*
X150353428Y-86566765D01*
X150377227Y-86560804D01*
X150401495Y-86557204D01*
X150425999Y-86556000D01*
X151326001Y-86556000D01*
X151350505Y-86557204D01*
X151350505Y-86557204D01*
G37*
D11*
G04 #@! TD*
G04 #@! TO.P,R2,2*
G04 #@! TO.N,Net-(C6-Pad1)*
X150876000Y-87131000D03*
D10*
G04 #@! TO.N,GND*
G04 #@! TO.C,R3*
G36*
X156314505Y-88201204D02*
X156338773Y-88204804D01*
X156362572Y-88210765D01*
X156385671Y-88219030D01*
X156407850Y-88229520D01*
X156428893Y-88242132D01*
X156448599Y-88256747D01*
X156466777Y-88273223D01*
X156483253Y-88291401D01*
X156497868Y-88311107D01*
X156510480Y-88332150D01*
X156520970Y-88354329D01*
X156529235Y-88377428D01*
X156535196Y-88401227D01*
X156538796Y-88425495D01*
X156540000Y-88449999D01*
X156540000Y-89350001D01*
X156538796Y-89374505D01*
X156535196Y-89398773D01*
X156529235Y-89422572D01*
X156520970Y-89445671D01*
X156510480Y-89467850D01*
X156497868Y-89488893D01*
X156483253Y-89508599D01*
X156466777Y-89526777D01*
X156448599Y-89543253D01*
X156428893Y-89557868D01*
X156407850Y-89570480D01*
X156385671Y-89580970D01*
X156362572Y-89589235D01*
X156338773Y-89595196D01*
X156314505Y-89598796D01*
X156290001Y-89600000D01*
X155639999Y-89600000D01*
X155615495Y-89598796D01*
X155591227Y-89595196D01*
X155567428Y-89589235D01*
X155544329Y-89580970D01*
X155522150Y-89570480D01*
X155501107Y-89557868D01*
X155481401Y-89543253D01*
X155463223Y-89526777D01*
X155446747Y-89508599D01*
X155432132Y-89488893D01*
X155419520Y-89467850D01*
X155409030Y-89445671D01*
X155400765Y-89422572D01*
X155394804Y-89398773D01*
X155391204Y-89374505D01*
X155390000Y-89350001D01*
X155390000Y-88449999D01*
X155391204Y-88425495D01*
X155394804Y-88401227D01*
X155400765Y-88377428D01*
X155409030Y-88354329D01*
X155419520Y-88332150D01*
X155432132Y-88311107D01*
X155446747Y-88291401D01*
X155463223Y-88273223D01*
X155481401Y-88256747D01*
X155501107Y-88242132D01*
X155522150Y-88229520D01*
X155544329Y-88219030D01*
X155567428Y-88210765D01*
X155591227Y-88204804D01*
X155615495Y-88201204D01*
X155639999Y-88200000D01*
X156290001Y-88200000D01*
X156314505Y-88201204D01*
X156314505Y-88201204D01*
G37*
D11*
G04 #@! TD*
G04 #@! TO.P,R3,2*
G04 #@! TO.N,GND*
X155965000Y-88900000D03*
D10*
G04 #@! TO.N,Net-(C6-Pad1)*
G04 #@! TO.C,R3*
G36*
X154264505Y-88201204D02*
X154288773Y-88204804D01*
X154312572Y-88210765D01*
X154335671Y-88219030D01*
X154357850Y-88229520D01*
X154378893Y-88242132D01*
X154398599Y-88256747D01*
X154416777Y-88273223D01*
X154433253Y-88291401D01*
X154447868Y-88311107D01*
X154460480Y-88332150D01*
X154470970Y-88354329D01*
X154479235Y-88377428D01*
X154485196Y-88401227D01*
X154488796Y-88425495D01*
X154490000Y-88449999D01*
X154490000Y-89350001D01*
X154488796Y-89374505D01*
X154485196Y-89398773D01*
X154479235Y-89422572D01*
X154470970Y-89445671D01*
X154460480Y-89467850D01*
X154447868Y-89488893D01*
X154433253Y-89508599D01*
X154416777Y-89526777D01*
X154398599Y-89543253D01*
X154378893Y-89557868D01*
X154357850Y-89570480D01*
X154335671Y-89580970D01*
X154312572Y-89589235D01*
X154288773Y-89595196D01*
X154264505Y-89598796D01*
X154240001Y-89600000D01*
X153589999Y-89600000D01*
X153565495Y-89598796D01*
X153541227Y-89595196D01*
X153517428Y-89589235D01*
X153494329Y-89580970D01*
X153472150Y-89570480D01*
X153451107Y-89557868D01*
X153431401Y-89543253D01*
X153413223Y-89526777D01*
X153396747Y-89508599D01*
X153382132Y-89488893D01*
X153369520Y-89467850D01*
X153359030Y-89445671D01*
X153350765Y-89422572D01*
X153344804Y-89398773D01*
X153341204Y-89374505D01*
X153340000Y-89350001D01*
X153340000Y-88449999D01*
X153341204Y-88425495D01*
X153344804Y-88401227D01*
X153350765Y-88377428D01*
X153359030Y-88354329D01*
X153369520Y-88332150D01*
X153382132Y-88311107D01*
X153396747Y-88291401D01*
X153413223Y-88273223D01*
X153431401Y-88256747D01*
X153451107Y-88242132D01*
X153472150Y-88229520D01*
X153494329Y-88219030D01*
X153517428Y-88210765D01*
X153541227Y-88204804D01*
X153565495Y-88201204D01*
X153589999Y-88200000D01*
X154240001Y-88200000D01*
X154264505Y-88201204D01*
X154264505Y-88201204D01*
G37*
D11*
G04 #@! TD*
G04 #@! TO.P,R3,1*
G04 #@! TO.N,Net-(C6-Pad1)*
X153915000Y-88900000D03*
D10*
G04 #@! TO.N,Net-(C8-Pad2)*
G04 #@! TO.C,R4*
G36*
X162399505Y-85396204D02*
X162423773Y-85399804D01*
X162447572Y-85405765D01*
X162470671Y-85414030D01*
X162492850Y-85424520D01*
X162513893Y-85437132D01*
X162533599Y-85451747D01*
X162551777Y-85468223D01*
X162568253Y-85486401D01*
X162582868Y-85506107D01*
X162595480Y-85527150D01*
X162605970Y-85549329D01*
X162614235Y-85572428D01*
X162620196Y-85596227D01*
X162623796Y-85620495D01*
X162625000Y-85644999D01*
X162625000Y-86295001D01*
X162623796Y-86319505D01*
X162620196Y-86343773D01*
X162614235Y-86367572D01*
X162605970Y-86390671D01*
X162595480Y-86412850D01*
X162582868Y-86433893D01*
X162568253Y-86453599D01*
X162551777Y-86471777D01*
X162533599Y-86488253D01*
X162513893Y-86502868D01*
X162492850Y-86515480D01*
X162470671Y-86525970D01*
X162447572Y-86534235D01*
X162423773Y-86540196D01*
X162399505Y-86543796D01*
X162375001Y-86545000D01*
X161474999Y-86545000D01*
X161450495Y-86543796D01*
X161426227Y-86540196D01*
X161402428Y-86534235D01*
X161379329Y-86525970D01*
X161357150Y-86515480D01*
X161336107Y-86502868D01*
X161316401Y-86488253D01*
X161298223Y-86471777D01*
X161281747Y-86453599D01*
X161267132Y-86433893D01*
X161254520Y-86412850D01*
X161244030Y-86390671D01*
X161235765Y-86367572D01*
X161229804Y-86343773D01*
X161226204Y-86319505D01*
X161225000Y-86295001D01*
X161225000Y-85644999D01*
X161226204Y-85620495D01*
X161229804Y-85596227D01*
X161235765Y-85572428D01*
X161244030Y-85549329D01*
X161254520Y-85527150D01*
X161267132Y-85506107D01*
X161281747Y-85486401D01*
X161298223Y-85468223D01*
X161316401Y-85451747D01*
X161336107Y-85437132D01*
X161357150Y-85424520D01*
X161379329Y-85414030D01*
X161402428Y-85405765D01*
X161426227Y-85399804D01*
X161450495Y-85396204D01*
X161474999Y-85395000D01*
X162375001Y-85395000D01*
X162399505Y-85396204D01*
X162399505Y-85396204D01*
G37*
D11*
G04 #@! TD*
G04 #@! TO.P,R4,1*
G04 #@! TO.N,Net-(C8-Pad2)*
X161925000Y-85970000D03*
D10*
G04 #@! TO.N,GND*
G04 #@! TO.C,R4*
G36*
X162399505Y-87446204D02*
X162423773Y-87449804D01*
X162447572Y-87455765D01*
X162470671Y-87464030D01*
X162492850Y-87474520D01*
X162513893Y-87487132D01*
X162533599Y-87501747D01*
X162551777Y-87518223D01*
X162568253Y-87536401D01*
X162582868Y-87556107D01*
X162595480Y-87577150D01*
X162605970Y-87599329D01*
X162614235Y-87622428D01*
X162620196Y-87646227D01*
X162623796Y-87670495D01*
X162625000Y-87694999D01*
X162625000Y-88345001D01*
X162623796Y-88369505D01*
X162620196Y-88393773D01*
X162614235Y-88417572D01*
X162605970Y-88440671D01*
X162595480Y-88462850D01*
X162582868Y-88483893D01*
X162568253Y-88503599D01*
X162551777Y-88521777D01*
X162533599Y-88538253D01*
X162513893Y-88552868D01*
X162492850Y-88565480D01*
X162470671Y-88575970D01*
X162447572Y-88584235D01*
X162423773Y-88590196D01*
X162399505Y-88593796D01*
X162375001Y-88595000D01*
X161474999Y-88595000D01*
X161450495Y-88593796D01*
X161426227Y-88590196D01*
X161402428Y-88584235D01*
X161379329Y-88575970D01*
X161357150Y-88565480D01*
X161336107Y-88552868D01*
X161316401Y-88538253D01*
X161298223Y-88521777D01*
X161281747Y-88503599D01*
X161267132Y-88483893D01*
X161254520Y-88462850D01*
X161244030Y-88440671D01*
X161235765Y-88417572D01*
X161229804Y-88393773D01*
X161226204Y-88369505D01*
X161225000Y-88345001D01*
X161225000Y-87694999D01*
X161226204Y-87670495D01*
X161229804Y-87646227D01*
X161235765Y-87622428D01*
X161244030Y-87599329D01*
X161254520Y-87577150D01*
X161267132Y-87556107D01*
X161281747Y-87536401D01*
X161298223Y-87518223D01*
X161316401Y-87501747D01*
X161336107Y-87487132D01*
X161357150Y-87474520D01*
X161379329Y-87464030D01*
X161402428Y-87455765D01*
X161426227Y-87449804D01*
X161450495Y-87446204D01*
X161474999Y-87445000D01*
X162375001Y-87445000D01*
X162399505Y-87446204D01*
X162399505Y-87446204D01*
G37*
D11*
G04 #@! TD*
G04 #@! TO.P,R4,2*
G04 #@! TO.N,GND*
X161925000Y-88020000D03*
D10*
G04 #@! TO.N,Net-(L1-Pad1)*
G04 #@! TO.C,R5*
G36*
X159224505Y-79681204D02*
X159248773Y-79684804D01*
X159272572Y-79690765D01*
X159295671Y-79699030D01*
X159317850Y-79709520D01*
X159338893Y-79722132D01*
X159358599Y-79736747D01*
X159376777Y-79753223D01*
X159393253Y-79771401D01*
X159407868Y-79791107D01*
X159420480Y-79812150D01*
X159430970Y-79834329D01*
X159439235Y-79857428D01*
X159445196Y-79881227D01*
X159448796Y-79905495D01*
X159450000Y-79929999D01*
X159450000Y-80580001D01*
X159448796Y-80604505D01*
X159445196Y-80628773D01*
X159439235Y-80652572D01*
X159430970Y-80675671D01*
X159420480Y-80697850D01*
X159407868Y-80718893D01*
X159393253Y-80738599D01*
X159376777Y-80756777D01*
X159358599Y-80773253D01*
X159338893Y-80787868D01*
X159317850Y-80800480D01*
X159295671Y-80810970D01*
X159272572Y-80819235D01*
X159248773Y-80825196D01*
X159224505Y-80828796D01*
X159200001Y-80830000D01*
X158299999Y-80830000D01*
X158275495Y-80828796D01*
X158251227Y-80825196D01*
X158227428Y-80819235D01*
X158204329Y-80810970D01*
X158182150Y-80800480D01*
X158161107Y-80787868D01*
X158141401Y-80773253D01*
X158123223Y-80756777D01*
X158106747Y-80738599D01*
X158092132Y-80718893D01*
X158079520Y-80697850D01*
X158069030Y-80675671D01*
X158060765Y-80652572D01*
X158054804Y-80628773D01*
X158051204Y-80604505D01*
X158050000Y-80580001D01*
X158050000Y-79929999D01*
X158051204Y-79905495D01*
X158054804Y-79881227D01*
X158060765Y-79857428D01*
X158069030Y-79834329D01*
X158079520Y-79812150D01*
X158092132Y-79791107D01*
X158106747Y-79771401D01*
X158123223Y-79753223D01*
X158141401Y-79736747D01*
X158161107Y-79722132D01*
X158182150Y-79709520D01*
X158204329Y-79699030D01*
X158227428Y-79690765D01*
X158251227Y-79684804D01*
X158275495Y-79681204D01*
X158299999Y-79680000D01*
X159200001Y-79680000D01*
X159224505Y-79681204D01*
X159224505Y-79681204D01*
G37*
D11*
G04 #@! TD*
G04 #@! TO.P,R5,1*
G04 #@! TO.N,Net-(L1-Pad1)*
X158750000Y-80255000D03*
D10*
G04 #@! TO.N,Net-(C8-Pad1)*
G04 #@! TO.C,R5*
G36*
X159224505Y-81731204D02*
X159248773Y-81734804D01*
X159272572Y-81740765D01*
X159295671Y-81749030D01*
X159317850Y-81759520D01*
X159338893Y-81772132D01*
X159358599Y-81786747D01*
X159376777Y-81803223D01*
X159393253Y-81821401D01*
X159407868Y-81841107D01*
X159420480Y-81862150D01*
X159430970Y-81884329D01*
X159439235Y-81907428D01*
X159445196Y-81931227D01*
X159448796Y-81955495D01*
X159450000Y-81979999D01*
X159450000Y-82630001D01*
X159448796Y-82654505D01*
X159445196Y-82678773D01*
X159439235Y-82702572D01*
X159430970Y-82725671D01*
X159420480Y-82747850D01*
X159407868Y-82768893D01*
X159393253Y-82788599D01*
X159376777Y-82806777D01*
X159358599Y-82823253D01*
X159338893Y-82837868D01*
X159317850Y-82850480D01*
X159295671Y-82860970D01*
X159272572Y-82869235D01*
X159248773Y-82875196D01*
X159224505Y-82878796D01*
X159200001Y-82880000D01*
X158299999Y-82880000D01*
X158275495Y-82878796D01*
X158251227Y-82875196D01*
X158227428Y-82869235D01*
X158204329Y-82860970D01*
X158182150Y-82850480D01*
X158161107Y-82837868D01*
X158141401Y-82823253D01*
X158123223Y-82806777D01*
X158106747Y-82788599D01*
X158092132Y-82768893D01*
X158079520Y-82747850D01*
X158069030Y-82725671D01*
X158060765Y-82702572D01*
X158054804Y-82678773D01*
X158051204Y-82654505D01*
X158050000Y-82630001D01*
X158050000Y-81979999D01*
X158051204Y-81955495D01*
X158054804Y-81931227D01*
X158060765Y-81907428D01*
X158069030Y-81884329D01*
X158079520Y-81862150D01*
X158092132Y-81841107D01*
X158106747Y-81821401D01*
X158123223Y-81803223D01*
X158141401Y-81786747D01*
X158161107Y-81772132D01*
X158182150Y-81759520D01*
X158204329Y-81749030D01*
X158227428Y-81740765D01*
X158251227Y-81734804D01*
X158275495Y-81731204D01*
X158299999Y-81730000D01*
X159200001Y-81730000D01*
X159224505Y-81731204D01*
X159224505Y-81731204D01*
G37*
D11*
G04 #@! TD*
G04 #@! TO.P,R5,2*
G04 #@! TO.N,Net-(C8-Pad1)*
X158750000Y-82305000D03*
D20*
G04 #@! TO.P,U1,1*
G04 #@! TO.N,GND*
X127263000Y-92450000D03*
G04 #@! TO.P,U1,2*
G04 #@! TO.N,Net-(C2-Pad1)*
X127263000Y-90170000D03*
G04 #@! TO.P,U1,3*
G04 #@! TO.N,Net-(C1-Pad1)*
X127263000Y-87890000D03*
D21*
G04 #@! TO.P,U1,2*
G04 #@! TO.N,Net-(C2-Pad1)*
X120963000Y-90170000D03*
G04 #@! TD*
D22*
G04 #@! TO.P,U2,6*
G04 #@! TO.N,Net-(U2-Pad6)*
X149733000Y-96324000D03*
G04 #@! TO.P,U2,7*
G04 #@! TO.N,Net-(U2-Pad7)*
X151003000Y-96324000D03*
G04 #@! TO.P,U2,8*
G04 #@! TO.N,Net-(C3-Pad1)*
X152273000Y-96324000D03*
G04 #@! TO.P,U2,3*
G04 #@! TO.N,Net-(U2-Pad3)*
X149733000Y-92144000D03*
G04 #@! TO.P,U2,1*
G04 #@! TO.N,Net-(U2-Pad1)*
X152273000Y-92144000D03*
G04 #@! TO.P,U2,2*
G04 #@! TO.N,Net-(U2-Pad2)*
X151003000Y-92144000D03*
D23*
G04 #@! TO.P,U2,10*
G04 #@! TO.N,Net-(U2-Pad10)*
X154108000Y-92964000D03*
G04 #@! TO.P,U2,9*
G04 #@! TO.N,Net-(C3-Pad1)*
X154108000Y-95504000D03*
G04 #@! TO.P,U2,4*
G04 #@! TO.N,GND*
X147898000Y-92964000D03*
G04 #@! TO.P,U2,5*
G04 #@! TO.N,Net-(C4-Pad2)*
X147898000Y-95504000D03*
G04 #@! TD*
D24*
G04 #@! TO.P,Y1,1*
G04 #@! TO.N,Net-(C4-Pad1)*
X138430000Y-92202000D03*
G04 #@! TO.P,Y1,2*
G04 #@! TO.N,Net-(C5-Pad1)*
X133550000Y-92202000D03*
G04 #@! TD*
G04 #@! TO.P,Y2,2*
G04 #@! TO.N,Net-(C6-Pad2)*
X138357000Y-86487000D03*
G04 #@! TO.P,Y2,1*
G04 #@! TO.N,Net-(C5-Pad1)*
X133477000Y-86487000D03*
G04 #@! TD*
D10*
G04 #@! TO.N,Net-(C3-Pad1)*
G04 #@! TO.C,C3*
G36*
X158130504Y-90497204D02*
X158154773Y-90500804D01*
X158178571Y-90506765D01*
X158201671Y-90515030D01*
X158223849Y-90525520D01*
X158244893Y-90538133D01*
X158264598Y-90552747D01*
X158282777Y-90569223D01*
X158299253Y-90587402D01*
X158313867Y-90607107D01*
X158326480Y-90628151D01*
X158336970Y-90650329D01*
X158345235Y-90673429D01*
X158351196Y-90697227D01*
X158354796Y-90721496D01*
X158356000Y-90746000D01*
X158356000Y-92896000D01*
X158354796Y-92920504D01*
X158351196Y-92944773D01*
X158345235Y-92968571D01*
X158336970Y-92991671D01*
X158326480Y-93013849D01*
X158313867Y-93034893D01*
X158299253Y-93054598D01*
X158282777Y-93072777D01*
X158264598Y-93089253D01*
X158244893Y-93103867D01*
X158223849Y-93116480D01*
X158201671Y-93126970D01*
X158178571Y-93135235D01*
X158154773Y-93141196D01*
X158130504Y-93144796D01*
X158106000Y-93146000D01*
X157181000Y-93146000D01*
X157156496Y-93144796D01*
X157132227Y-93141196D01*
X157108429Y-93135235D01*
X157085329Y-93126970D01*
X157063151Y-93116480D01*
X157042107Y-93103867D01*
X157022402Y-93089253D01*
X157004223Y-93072777D01*
X156987747Y-93054598D01*
X156973133Y-93034893D01*
X156960520Y-93013849D01*
X156950030Y-92991671D01*
X156941765Y-92968571D01*
X156935804Y-92944773D01*
X156932204Y-92920504D01*
X156931000Y-92896000D01*
X156931000Y-90746000D01*
X156932204Y-90721496D01*
X156935804Y-90697227D01*
X156941765Y-90673429D01*
X156950030Y-90650329D01*
X156960520Y-90628151D01*
X156973133Y-90607107D01*
X156987747Y-90587402D01*
X157004223Y-90569223D01*
X157022402Y-90552747D01*
X157042107Y-90538133D01*
X157063151Y-90525520D01*
X157085329Y-90515030D01*
X157108429Y-90506765D01*
X157132227Y-90500804D01*
X157156496Y-90497204D01*
X157181000Y-90496000D01*
X158106000Y-90496000D01*
X158130504Y-90497204D01*
X158130504Y-90497204D01*
G37*
D12*
G04 #@! TD*
G04 #@! TO.P,C3,1*
G04 #@! TO.N,Net-(C3-Pad1)*
X157643500Y-91821000D03*
D10*
G04 #@! TO.N,GND*
G04 #@! TO.C,C3*
G36*
X161105504Y-90497204D02*
X161129773Y-90500804D01*
X161153571Y-90506765D01*
X161176671Y-90515030D01*
X161198849Y-90525520D01*
X161219893Y-90538133D01*
X161239598Y-90552747D01*
X161257777Y-90569223D01*
X161274253Y-90587402D01*
X161288867Y-90607107D01*
X161301480Y-90628151D01*
X161311970Y-90650329D01*
X161320235Y-90673429D01*
X161326196Y-90697227D01*
X161329796Y-90721496D01*
X161331000Y-90746000D01*
X161331000Y-92896000D01*
X161329796Y-92920504D01*
X161326196Y-92944773D01*
X161320235Y-92968571D01*
X161311970Y-92991671D01*
X161301480Y-93013849D01*
X161288867Y-93034893D01*
X161274253Y-93054598D01*
X161257777Y-93072777D01*
X161239598Y-93089253D01*
X161219893Y-93103867D01*
X161198849Y-93116480D01*
X161176671Y-93126970D01*
X161153571Y-93135235D01*
X161129773Y-93141196D01*
X161105504Y-93144796D01*
X161081000Y-93146000D01*
X160156000Y-93146000D01*
X160131496Y-93144796D01*
X160107227Y-93141196D01*
X160083429Y-93135235D01*
X160060329Y-93126970D01*
X160038151Y-93116480D01*
X160017107Y-93103867D01*
X159997402Y-93089253D01*
X159979223Y-93072777D01*
X159962747Y-93054598D01*
X159948133Y-93034893D01*
X159935520Y-93013849D01*
X159925030Y-92991671D01*
X159916765Y-92968571D01*
X159910804Y-92944773D01*
X159907204Y-92920504D01*
X159906000Y-92896000D01*
X159906000Y-90746000D01*
X159907204Y-90721496D01*
X159910804Y-90697227D01*
X159916765Y-90673429D01*
X159925030Y-90650329D01*
X159935520Y-90628151D01*
X159948133Y-90607107D01*
X159962747Y-90587402D01*
X159979223Y-90569223D01*
X159997402Y-90552747D01*
X160017107Y-90538133D01*
X160038151Y-90525520D01*
X160060329Y-90515030D01*
X160083429Y-90506765D01*
X160107227Y-90500804D01*
X160131496Y-90497204D01*
X160156000Y-90496000D01*
X161081000Y-90496000D01*
X161105504Y-90497204D01*
X161105504Y-90497204D01*
G37*
D12*
G04 #@! TD*
G04 #@! TO.P,C3,2*
G04 #@! TO.N,GND*
X160618500Y-91821000D03*
D25*
G04 #@! TO.N,GND*
X132207000Y-97536000D03*
X132207000Y-96520000D03*
X125222000Y-97536000D03*
X125222000Y-96139000D03*
X156591000Y-83566000D03*
X156591000Y-82677000D03*
X146304000Y-85471000D03*
X162433000Y-88011000D03*
X155956000Y-89408000D03*
X147447000Y-92964000D03*
X148336000Y-92964000D03*
X124841000Y-75946000D03*
X126619000Y-75946000D03*
X145034000Y-89789000D03*
X150114000Y-81407000D03*
X142494000Y-81534000D03*
X160655000Y-91059000D03*
X127762000Y-92456000D03*
X126619000Y-92456000D03*
X145034000Y-90678000D03*
X150114000Y-80391000D03*
X142494000Y-80645000D03*
X146304000Y-84582000D03*
X155956000Y-88519000D03*
X160655000Y-92456000D03*
X161417000Y-88011000D03*
X125730000Y-75946000D03*
G04 #@! TD*
D26*
G04 #@! TO.N,Net-(C1-Pad1)*
X127263000Y-87890000D02*
X127263000Y-85226000D01*
X127263000Y-85226000D02*
X125730000Y-83693000D01*
X120904000Y-82296000D02*
X125730000Y-82296000D01*
X125730000Y-83693000D02*
X125730000Y-82296000D01*
X125730000Y-82296000D02*
X125730000Y-78957500D01*
G04 #@! TO.N,Net-(C2-Pad1)*
X127263000Y-90170000D02*
X120963000Y-90170000D01*
D27*
X154550000Y-85750000D02*
X153940000Y-86360000D01*
X154550000Y-83185000D02*
X154550000Y-85750000D01*
D26*
X140328000Y-96282000D02*
X139582000Y-97028000D01*
X144272000Y-96282000D02*
X140328000Y-96282000D01*
X129363000Y-90170000D02*
X127263000Y-90170000D01*
D27*
X129921000Y-89612000D02*
X129363000Y-90170000D01*
X129921000Y-89612000D02*
X129921000Y-84455000D01*
X129921000Y-84328000D02*
X129921000Y-84455000D01*
X130937000Y-83312000D02*
X129921000Y-84328000D01*
X147193000Y-83312000D02*
X146558000Y-83312000D01*
X146558000Y-83312000D02*
X130937000Y-83312000D01*
X147193000Y-83312000D02*
X147320000Y-83185000D01*
X148835000Y-85580000D02*
X148345000Y-85090000D01*
X148345000Y-83194000D02*
X148336000Y-83185000D01*
X148345000Y-85090000D02*
X148345000Y-83194000D01*
X147320000Y-83185000D02*
X148336000Y-83185000D01*
X148336000Y-83185000D02*
X154550000Y-83185000D01*
D26*
X148354000Y-85081000D02*
X148345000Y-85090000D01*
X150876000Y-85081000D02*
X148354000Y-85081000D01*
X129363000Y-90170000D02*
X129363000Y-94184000D01*
X129363000Y-94184000D02*
X130556000Y-95377000D01*
X139582000Y-96228000D02*
X139582000Y-97028000D01*
X138731000Y-95377000D02*
X139582000Y-96228000D01*
X130556000Y-95377000D02*
X138731000Y-95377000D01*
D27*
G04 #@! TO.N,Net-(C4-Pad2)*
X147728000Y-95504000D02*
X146050000Y-93826000D01*
D26*
X147898000Y-95504000D02*
X147728000Y-95504000D01*
D27*
X146050000Y-93826000D02*
X146050000Y-93209000D01*
X146050000Y-93169000D02*
X146050000Y-93209000D01*
X145718000Y-92837000D02*
X146050000Y-93169000D01*
X145043000Y-92837000D02*
X145718000Y-92837000D01*
D26*
G04 #@! TO.N,Net-(C4-Pad1)*
X139065000Y-92837000D02*
X138430000Y-92202000D01*
X142993000Y-92837000D02*
X139065000Y-92837000D01*
G04 #@! TO.N,Net-(C5-Pad1)*
X133477000Y-92402000D02*
X133423000Y-92456000D01*
D27*
X133550000Y-89735000D02*
X133477000Y-89662000D01*
X133550000Y-92202000D02*
X133550000Y-89735000D01*
X142369628Y-89673628D02*
X142369628Y-89664628D01*
X142993000Y-90297000D02*
X142369628Y-89673628D01*
X141859000Y-89154000D02*
X133477000Y-89154000D01*
X142369628Y-89664628D02*
X141859000Y-89154000D01*
X133477000Y-86487000D02*
X133477000Y-89154000D01*
X133477000Y-89154000D02*
X133477000Y-89662000D01*
G04 #@! TO.N,Net-(C6-Pad1)*
X153915000Y-88100000D02*
X153915000Y-88900000D01*
X154704990Y-87310010D02*
X153915000Y-88100000D01*
X155639990Y-87310010D02*
X154704990Y-87310010D01*
X155940000Y-87010000D02*
X155639990Y-87310010D01*
D26*
X146694000Y-88900000D02*
X145043000Y-87249000D01*
X150876000Y-87806000D02*
X150876000Y-88900000D01*
X150876000Y-87131000D02*
X150876000Y-87806000D01*
X153915000Y-88900000D02*
X150876000Y-88900000D01*
X150876000Y-88900000D02*
X146694000Y-88900000D01*
G04 #@! TO.N,Net-(C6-Pad2)*
X142231000Y-86487000D02*
X142993000Y-87249000D01*
X138357000Y-86487000D02*
X142231000Y-86487000D01*
G04 #@! TO.N,Net-(C8-Pad1)*
X161780000Y-82305000D02*
X161925000Y-82160000D01*
X158750000Y-82305000D02*
X161780000Y-82305000D01*
G04 #@! TO.N,Net-(C8-Pad2)*
X161925000Y-84210000D02*
X161925000Y-85970000D01*
X161665000Y-85710000D02*
X161925000Y-85970000D01*
D27*
X155940000Y-85710000D02*
X161665000Y-85710000D01*
D26*
G04 #@! TO.N,Net-(C9-Pad1)*
X153985000Y-77470000D02*
X152400000Y-77470000D01*
X152400000Y-77470000D02*
X150815000Y-77470000D01*
X152155000Y-77715000D02*
X152400000Y-77470000D01*
X152155000Y-80899000D02*
X152155000Y-77715000D01*
G04 #@! TO.N,Net-(C10-Pad1)*
X146365000Y-77470000D02*
X144780000Y-77470000D01*
X144780000Y-77470000D02*
X143195000Y-77470000D01*
X144662000Y-77588000D02*
X144662000Y-81026000D01*
X144780000Y-77470000D02*
X144662000Y-77588000D01*
G04 #@! TO.N,Net-(J2-Pad1)*
X137729000Y-78486000D02*
X138745000Y-77470000D01*
D28*
X132715000Y-78486000D02*
X137729000Y-78486000D01*
D26*
G04 #@! TO.N,Net-(L1-Pad1)*
X158435000Y-79940000D02*
X158750000Y-80255000D01*
X158435000Y-77470000D02*
X158435000Y-79940000D01*
D27*
G04 #@! TO.N,Net-(C11-Pad1)*
X129884500Y-98552000D02*
X128233500Y-96901000D01*
X133731000Y-98552000D02*
X129884500Y-98552000D01*
X134001000Y-98282000D02*
X133731000Y-98552000D01*
X134375000Y-98273000D02*
X134366000Y-98282000D01*
X134375000Y-97028000D02*
X134375000Y-98273000D01*
X134366000Y-98282000D02*
X134001000Y-98282000D01*
X137532000Y-98164000D02*
X137414000Y-98282000D01*
X137532000Y-97028000D02*
X137532000Y-98164000D01*
X143322000Y-98282000D02*
X137414000Y-98282000D01*
X137414000Y-98282000D02*
X134366000Y-98282000D01*
G04 #@! TO.N,Net-(Q2-Pad2)*
X156616000Y-98282000D02*
X157226000Y-97672000D01*
X145222000Y-98282000D02*
X156616000Y-98282000D01*
G04 #@! TO.N,Net-(C3-Pad1)*
X157226000Y-92238500D02*
X157643500Y-91821000D01*
X157226000Y-95622000D02*
X157226000Y-92238500D01*
X154226000Y-95622000D02*
X154108000Y-95504000D01*
X157226000Y-95622000D02*
X154226000Y-95622000D01*
X153288000Y-96324000D02*
X154108000Y-95504000D01*
X152273000Y-96324000D02*
X153288000Y-96324000D01*
G04 #@! TD*
M02*
