M48
INCH,TZ
T1C0.0157
T2C0.0315
T3C0.0472
T4C0.0591
T5C0.0669
%
G90
G05
T1
X49150Y-29900
X49300Y-37850
X49300Y-38400
X49500Y-29900
X49850Y-29900
X49850Y-36400
X50300Y-36400
X52050Y-38000
X52050Y-38400
X56100Y-31750
X56100Y-32100
X57100Y-35350
X57100Y-35700
X57600Y-33300
X57600Y-33650
X58050Y-36600
X58400Y-36600
X59100Y-31650
X59100Y-32050
X61400Y-34850
X61400Y-35200
X61650Y-32550
X61650Y-32900
X63250Y-35850
X63250Y-36400
X63550Y-34650
X63950Y-34650
T2
X52579Y-36300
X54500Y-36300
X52550Y-34050
X54471Y-34050
T3
X47600Y-32400
X47600Y-33400
T4
X52250Y-30900
T5
X51250Y-29900
X51250Y-31900
X53250Y-29900
X53250Y-31900
T0
M30
